<svg width="304" height="200" viewBox="0 0 304 200" fill="none" xmlns="http://www.w3.org/2000/svg">
<path d="M8.54688 133.773V135H2.52344V133.773H8.54688ZM2.82812 123.625V135H1.32031V123.625H2.82812ZM7.75 128.516V129.742H2.52344V128.516H7.75ZM8.46875 123.625V124.859H2.52344V123.625H8.46875ZM13.4219 133.969C13.7656 133.969 14.0833 133.898 14.375 133.758C14.6667 133.617 14.9062 133.424 15.0938 133.18C15.2812 132.93 15.388 132.646 15.4141 132.328H16.7891C16.763 132.828 16.5938 133.294 16.2812 133.727C15.974 134.154 15.5703 134.5 15.0703 134.766C14.5703 135.026 14.0208 135.156 13.4219 135.156C12.7865 135.156 12.2318 135.044 11.7578 134.82C11.2891 134.596 10.8984 134.289 10.5859 133.898C10.2786 133.508 10.0469 133.06 9.89062 132.555C9.73958 132.044 9.66406 131.505 9.66406 130.938V130.609C9.66406 130.042 9.73958 129.505 9.89062 129C10.0469 128.49 10.2786 128.039 10.5859 127.648C10.8984 127.258 11.2891 126.951 11.7578 126.727C12.2318 126.503 12.7865 126.391 13.4219 126.391C14.0833 126.391 14.6615 126.526 15.1562 126.797C15.651 127.062 16.0391 127.427 16.3203 127.891C16.6068 128.349 16.763 128.87 16.7891 129.453H15.4141C15.388 129.104 15.2891 128.789 15.1172 128.508C14.9505 128.227 14.7214 128.003 14.4297 127.836C14.1432 127.664 13.8073 127.578 13.4219 127.578C12.9792 127.578 12.6068 127.667 12.3047 127.844C12.0078 128.016 11.7708 128.25 11.5938 128.547C11.4219 128.839 11.2969 129.164 11.2188 129.523C11.1458 129.878 11.1094 130.24 11.1094 130.609V130.938C11.1094 131.307 11.1458 131.672 11.2188 132.031C11.2917 132.391 11.4141 132.716 11.5859 133.008C11.763 133.299 12 133.534 12.2969 133.711C12.599 133.883 12.974 133.969 13.4219 133.969ZM24.0625 126.547V127.742H19.9766V126.547H24.0625ZM25.3359 126.547V135H23.8906V126.547H25.3359ZM19.625 126.547H21.0781L20.8594 130.625C20.8229 131.255 20.763 131.812 20.6797 132.297C20.6016 132.776 20.4922 133.188 20.3516 133.531C20.2161 133.875 20.0443 134.156 19.8359 134.375C19.6328 134.589 19.388 134.747 19.1016 134.852C18.8151 134.951 18.4844 135 18.1094 135H17.6562V133.727L17.9688 133.703C18.1927 133.688 18.3828 133.635 18.5391 133.547C18.7005 133.458 18.8359 133.328 18.9453 133.156C19.0547 132.979 19.1432 132.753 19.2109 132.477C19.2839 132.201 19.3385 131.872 19.375 131.492C19.4167 131.112 19.4479 130.669 19.4688 130.164L19.625 126.547ZM29.2266 132.711L33.125 126.547H34.5781V135H33.125V128.836L29.2266 135H27.7891V126.547H29.2266V132.711ZM43.2422 134.125L45.5938 126.547H47.1406L43.75 136.305C43.6719 136.513 43.5677 136.737 43.4375 136.977C43.3125 137.221 43.151 137.453 42.9531 137.672C42.7552 137.891 42.5156 138.068 42.2344 138.203C41.9583 138.344 41.6276 138.414 41.2422 138.414C41.1276 138.414 40.9818 138.398 40.8047 138.367C40.6276 138.336 40.5026 138.31 40.4297 138.289L40.4219 137.117C40.4635 137.122 40.5286 137.128 40.6172 137.133C40.7109 137.143 40.776 137.148 40.8125 137.148C41.1406 137.148 41.4193 137.104 41.6484 137.016C41.8776 136.932 42.0703 136.789 42.2266 136.586C42.388 136.388 42.526 136.115 42.6406 135.766L43.2422 134.125ZM41.5156 126.547L43.7109 133.109L44.0859 134.633L43.0469 135.164L39.9375 126.547H41.5156ZM56.3828 131.281H53.6094L53.5938 130.125H55.8594C56.3073 130.125 56.6797 130.081 56.9766 129.992C57.2786 129.904 57.5052 129.771 57.6562 129.594C57.8073 129.417 57.8828 129.198 57.8828 128.938C57.8828 128.734 57.8385 128.557 57.75 128.406C57.6667 128.25 57.5391 128.122 57.3672 128.023C57.1953 127.919 56.9818 127.844 56.7266 127.797C56.4766 127.745 56.1823 127.719 55.8438 127.719H53.9922V135H52.5469V126.547H55.8438C56.3802 126.547 56.862 126.594 57.2891 126.688C57.7214 126.781 58.0885 126.924 58.3906 127.117C58.6979 127.305 58.9323 127.544 59.0938 127.836C59.2552 128.128 59.3359 128.471 59.3359 128.867C59.3359 129.122 59.2839 129.365 59.1797 129.594C59.0755 129.823 58.9219 130.026 58.7188 130.203C58.5156 130.38 58.2656 130.526 57.9688 130.641C57.6719 130.75 57.3307 130.82 56.9453 130.852L56.3828 131.281ZM56.3828 135H53.0859L53.8047 133.828H56.3828C56.7839 133.828 57.1172 133.779 57.3828 133.68C57.6484 133.576 57.8464 133.43 57.9766 133.242C58.112 133.049 58.1797 132.82 58.1797 132.555C58.1797 132.289 58.112 132.062 57.9766 131.875C57.8464 131.682 57.6484 131.536 57.3828 131.438C57.1172 131.333 56.7839 131.281 56.3828 131.281H54.1875L54.2031 130.125H56.9453L57.4688 130.562C57.9323 130.599 58.3255 130.714 58.6484 130.906C58.9714 131.099 59.2161 131.344 59.3828 131.641C59.5495 131.932 59.6328 132.25 59.6328 132.594C59.6328 132.99 59.5573 133.339 59.4062 133.641C59.2604 133.943 59.0469 134.195 58.7656 134.398C58.4844 134.596 58.1432 134.747 57.7422 134.852C57.3411 134.951 56.888 135 56.3828 135ZM66.5547 133.555V129.203C66.5547 128.87 66.487 128.581 66.3516 128.336C66.2214 128.086 66.0234 127.893 65.7578 127.758C65.4922 127.622 65.1641 127.555 64.7734 127.555C64.4089 127.555 64.0885 127.617 63.8125 127.742C63.5417 127.867 63.3281 128.031 63.1719 128.234C63.0208 128.438 62.9453 128.656 62.9453 128.891H61.5C61.5 128.589 61.5781 128.289 61.7344 127.992C61.8906 127.695 62.1146 127.427 62.4062 127.188C62.7031 126.943 63.0573 126.75 63.4688 126.609C63.8854 126.464 64.349 126.391 64.8594 126.391C65.474 126.391 66.0156 126.495 66.4844 126.703C66.9583 126.911 67.3281 127.227 67.5938 127.648C67.8646 128.065 68 128.589 68 129.219V133.156C68 133.438 68.0234 133.737 68.0703 134.055C68.1224 134.372 68.1979 134.646 68.2969 134.875V135H66.7891C66.7161 134.833 66.6589 134.612 66.6172 134.336C66.5755 134.055 66.5547 133.794 66.5547 133.555ZM66.8047 129.875L66.8203 130.891H65.3594C64.9479 130.891 64.5807 130.924 64.2578 130.992C63.9349 131.055 63.6641 131.151 63.4453 131.281C63.2266 131.411 63.0599 131.576 62.9453 131.773C62.8307 131.966 62.7734 132.193 62.7734 132.453C62.7734 132.719 62.8333 132.961 62.9531 133.18C63.0729 133.398 63.2526 133.573 63.4922 133.703C63.737 133.828 64.0365 133.891 64.3906 133.891C64.8333 133.891 65.224 133.797 65.5625 133.609C65.901 133.422 66.1693 133.193 66.3672 132.922C66.5703 132.651 66.6797 132.388 66.6953 132.133L67.3125 132.828C67.276 133.047 67.1771 133.289 67.0156 133.555C66.8542 133.82 66.638 134.076 66.3672 134.32C66.1016 134.56 65.7839 134.76 65.4141 134.922C65.0495 135.078 64.638 135.156 64.1797 135.156C63.6068 135.156 63.1042 135.044 62.6719 134.82C62.2448 134.596 61.9115 134.297 61.6719 133.922C61.4375 133.542 61.3203 133.117 61.3203 132.648C61.3203 132.195 61.4089 131.797 61.5859 131.453C61.763 131.104 62.0182 130.815 62.3516 130.586C62.6849 130.352 63.0859 130.174 63.5547 130.055C64.0234 129.935 64.5469 129.875 65.125 129.875H66.8047ZM73.6562 133.969C74 133.969 74.3177 133.898 74.6094 133.758C74.901 133.617 75.1406 133.424 75.3281 133.18C75.5156 132.93 75.6224 132.646 75.6484 132.328H77.0234C76.9974 132.828 76.8281 133.294 76.5156 133.727C76.2083 134.154 75.8047 134.5 75.3047 134.766C74.8047 135.026 74.2552 135.156 73.6562 135.156C73.0208 135.156 72.4661 135.044 71.9922 134.82C71.5234 134.596 71.1328 134.289 70.8203 133.898C70.513 133.508 70.2812 133.06 70.125 132.555C69.974 132.044 69.8984 131.505 69.8984 130.938V130.609C69.8984 130.042 69.974 129.505 70.125 129C70.2812 128.49 70.513 128.039 70.8203 127.648C71.1328 127.258 71.5234 126.951 71.9922 126.727C72.4661 126.503 73.0208 126.391 73.6562 126.391C74.3177 126.391 74.8958 126.526 75.3906 126.797C75.8854 127.062 76.2734 127.427 76.5547 127.891C76.8411 128.349 76.9974 128.87 77.0234 129.453H75.6484C75.6224 129.104 75.5234 128.789 75.3516 128.508C75.1849 128.227 74.9557 128.003 74.6641 127.836C74.3776 127.664 74.0417 127.578 73.6562 127.578C73.2135 127.578 72.8411 127.667 72.5391 127.844C72.2422 128.016 72.0052 128.25 71.8281 128.547C71.6562 128.839 71.5312 129.164 71.4531 129.523C71.3802 129.878 71.3438 130.24 71.3438 130.609V130.938C71.3438 131.307 71.3802 131.672 71.4531 132.031C71.526 132.391 71.6484 132.716 71.8203 133.008C71.9974 133.299 72.2344 133.534 72.5312 133.711C72.8333 133.883 73.2083 133.969 73.6562 133.969ZM88.3516 130.211V131.383H83.8828V130.211H88.3516ZM84.1875 126.547V135H82.7422V126.547H84.1875ZM89.5234 126.547V135H88.0703V126.547H89.5234ZM95.3594 135.156C94.7708 135.156 94.237 135.057 93.7578 134.859C93.2839 134.656 92.875 134.372 92.5312 134.008C92.1927 133.643 91.9323 133.211 91.75 132.711C91.5677 132.211 91.4766 131.664 91.4766 131.07V130.742C91.4766 130.055 91.5781 129.443 91.7812 128.906C91.9844 128.365 92.2604 127.906 92.6094 127.531C92.9583 127.156 93.3542 126.872 93.7969 126.68C94.2396 126.487 94.6979 126.391 95.1719 126.391C95.776 126.391 96.2969 126.495 96.7344 126.703C97.1771 126.911 97.5391 127.203 97.8203 127.578C98.1016 127.948 98.3099 128.385 98.4453 128.891C98.5807 129.391 98.6484 129.938 98.6484 130.531V131.18H92.3359V130H97.2031V129.891C97.1823 129.516 97.1042 129.151 96.9688 128.797C96.8385 128.443 96.6302 128.151 96.3438 127.922C96.0573 127.693 95.6667 127.578 95.1719 127.578C94.8438 127.578 94.5417 127.648 94.2656 127.789C93.9896 127.924 93.7526 128.128 93.5547 128.398C93.3568 128.669 93.2031 129 93.0938 129.391C92.9844 129.781 92.9297 130.232 92.9297 130.742V131.07C92.9297 131.471 92.9844 131.849 93.0938 132.203C93.2083 132.552 93.3724 132.859 93.5859 133.125C93.8047 133.391 94.0677 133.599 94.375 133.75C94.6875 133.901 95.0417 133.977 95.4375 133.977C95.9479 133.977 96.3802 133.872 96.7344 133.664C97.0885 133.456 97.3984 133.177 97.6641 132.828L98.5391 133.523C98.3568 133.799 98.125 134.062 97.8438 134.312C97.5625 134.562 97.2161 134.766 96.8047 134.922C96.3984 135.078 95.9167 135.156 95.3594 135.156ZM103.688 126.547V135H102.234V126.547H103.688ZM106.523 126.547V127.719H99.4531V126.547H106.523ZM109.508 132.711L113.406 126.547H114.859V135H113.406V128.836L109.508 135H108.07V126.547H109.508V132.711ZM122.812 126.547V127.742H118.539V126.547H122.812ZM118.75 126.547V135H117.305V126.547H118.75ZM124.094 126.547V135H122.641V126.547H124.094ZM126.031 130.867V130.688C126.031 130.078 126.12 129.513 126.297 128.992C126.474 128.466 126.729 128.01 127.062 127.625C127.396 127.234 127.799 126.932 128.273 126.719C128.747 126.5 129.279 126.391 129.867 126.391C130.461 126.391 130.995 126.5 131.469 126.719C131.948 126.932 132.354 127.234 132.688 127.625C133.026 128.01 133.284 128.466 133.461 128.992C133.638 129.513 133.727 130.078 133.727 130.688V130.867C133.727 131.477 133.638 132.042 133.461 132.562C133.284 133.083 133.026 133.539 132.688 133.93C132.354 134.315 131.951 134.617 131.477 134.836C131.008 135.049 130.477 135.156 129.883 135.156C129.289 135.156 128.755 135.049 128.281 134.836C127.807 134.617 127.401 134.315 127.062 133.93C126.729 133.539 126.474 133.083 126.297 132.562C126.12 132.042 126.031 131.477 126.031 130.867ZM127.477 130.688V130.867C127.477 131.289 127.526 131.688 127.625 132.062C127.724 132.432 127.872 132.76 128.07 133.047C128.273 133.333 128.526 133.56 128.828 133.727C129.13 133.888 129.482 133.969 129.883 133.969C130.279 133.969 130.625 133.888 130.922 133.727C131.224 133.56 131.474 133.333 131.672 133.047C131.87 132.76 132.018 132.432 132.117 132.062C132.221 131.688 132.273 131.289 132.273 130.867V130.688C132.273 130.271 132.221 129.878 132.117 129.508C132.018 129.133 131.867 128.802 131.664 128.516C131.466 128.224 131.216 127.995 130.914 127.828C130.617 127.661 130.268 127.578 129.867 127.578C129.471 127.578 129.122 127.661 128.82 127.828C128.523 127.995 128.273 128.224 128.07 128.516C127.872 128.802 127.724 129.133 127.625 129.508C127.526 129.878 127.477 130.271 127.477 130.688ZM139.508 131.281H136.734L136.719 130.125H138.984C139.432 130.125 139.805 130.081 140.102 129.992C140.404 129.904 140.63 129.771 140.781 129.594C140.932 129.417 141.008 129.198 141.008 128.938C141.008 128.734 140.964 128.557 140.875 128.406C140.792 128.25 140.664 128.122 140.492 128.023C140.32 127.919 140.107 127.844 139.852 127.797C139.602 127.745 139.307 127.719 138.969 127.719H137.117V135H135.672V126.547H138.969C139.505 126.547 139.987 126.594 140.414 126.688C140.846 126.781 141.214 126.924 141.516 127.117C141.823 127.305 142.057 127.544 142.219 127.836C142.38 128.128 142.461 128.471 142.461 128.867C142.461 129.122 142.409 129.365 142.305 129.594C142.201 129.823 142.047 130.026 141.844 130.203C141.641 130.38 141.391 130.526 141.094 130.641C140.797 130.75 140.456 130.82 140.07 130.852L139.508 131.281ZM139.508 135H136.211L136.93 133.828H139.508C139.909 133.828 140.242 133.779 140.508 133.68C140.773 133.576 140.971 133.43 141.102 133.242C141.237 133.049 141.305 132.82 141.305 132.555C141.305 132.289 141.237 132.062 141.102 131.875C140.971 131.682 140.773 131.536 140.508 131.438C140.242 131.333 139.909 131.281 139.508 131.281H137.312L137.328 130.125H140.07L140.594 130.562C141.057 130.599 141.451 130.714 141.773 130.906C142.096 131.099 142.341 131.344 142.508 131.641C142.674 131.932 142.758 132.25 142.758 132.594C142.758 132.99 142.682 133.339 142.531 133.641C142.385 133.943 142.172 134.195 141.891 134.398C141.609 134.596 141.268 134.747 140.867 134.852C140.466 134.951 140.013 135 139.508 135ZM144.312 130.867V130.688C144.312 130.078 144.401 129.513 144.578 128.992C144.755 128.466 145.01 128.01 145.344 127.625C145.677 127.234 146.081 126.932 146.555 126.719C147.029 126.5 147.56 126.391 148.148 126.391C148.742 126.391 149.276 126.5 149.75 126.719C150.229 126.932 150.635 127.234 150.969 127.625C151.307 128.01 151.565 128.466 151.742 128.992C151.919 129.513 152.008 130.078 152.008 130.688V130.867C152.008 131.477 151.919 132.042 151.742 132.562C151.565 133.083 151.307 133.539 150.969 133.93C150.635 134.315 150.232 134.617 149.758 134.836C149.289 135.049 148.758 135.156 148.164 135.156C147.57 135.156 147.036 135.049 146.562 134.836C146.089 134.617 145.682 134.315 145.344 133.93C145.01 133.539 144.755 133.083 144.578 132.562C144.401 132.042 144.312 131.477 144.312 130.867ZM145.758 130.688V130.867C145.758 131.289 145.807 131.688 145.906 132.062C146.005 132.432 146.154 132.76 146.352 133.047C146.555 133.333 146.807 133.56 147.109 133.727C147.411 133.888 147.763 133.969 148.164 133.969C148.56 133.969 148.906 133.888 149.203 133.727C149.505 133.56 149.755 133.333 149.953 133.047C150.151 132.76 150.299 132.432 150.398 132.062C150.503 131.688 150.555 131.289 150.555 130.867V130.688C150.555 130.271 150.503 129.878 150.398 129.508C150.299 129.133 150.148 128.802 149.945 128.516C149.747 128.224 149.497 127.995 149.195 127.828C148.898 127.661 148.549 127.578 148.148 127.578C147.753 127.578 147.404 127.661 147.102 127.828C146.805 127.995 146.555 128.224 146.352 128.516C146.154 128.802 146.005 129.133 145.906 129.508C145.807 129.878 145.758 130.271 145.758 130.688ZM155.383 132.711L159.281 126.547H160.734V135H159.281V128.836L155.383 135H153.945V126.547H155.383V132.711ZM158.492 123.484H159.664C159.664 123.891 159.57 124.253 159.383 124.57C159.195 124.883 158.927 125.128 158.578 125.305C158.229 125.482 157.815 125.57 157.336 125.57C156.612 125.57 156.039 125.378 155.617 124.992C155.201 124.602 154.992 124.099 154.992 123.484H156.164C156.164 123.792 156.253 124.062 156.43 124.297C156.607 124.531 156.909 124.648 157.336 124.648C157.753 124.648 158.049 124.531 158.227 124.297C158.404 124.062 158.492 123.792 158.492 123.484ZM172.656 126.547V127.742H168.383V126.547H172.656ZM168.594 126.547V135H167.148V126.547H168.594ZM173.938 126.547V135H172.484V126.547H173.938ZM177.703 128.172V138.25H176.25V126.547H177.578L177.703 128.172ZM183.398 130.703V130.867C183.398 131.482 183.326 132.052 183.18 132.578C183.034 133.099 182.82 133.552 182.539 133.938C182.263 134.323 181.922 134.622 181.516 134.836C181.109 135.049 180.643 135.156 180.117 135.156C179.581 135.156 179.107 135.068 178.695 134.891C178.284 134.714 177.935 134.456 177.648 134.117C177.362 133.779 177.133 133.372 176.961 132.898C176.794 132.424 176.68 131.891 176.617 131.297V130.422C176.68 129.797 176.797 129.237 176.969 128.742C177.141 128.247 177.367 127.826 177.648 127.477C177.935 127.122 178.281 126.854 178.688 126.672C179.094 126.484 179.562 126.391 180.094 126.391C180.625 126.391 181.096 126.495 181.508 126.703C181.919 126.906 182.266 127.198 182.547 127.578C182.828 127.958 183.039 128.414 183.18 128.945C183.326 129.471 183.398 130.057 183.398 130.703ZM181.945 130.867V130.703C181.945 130.281 181.901 129.885 181.812 129.516C181.724 129.141 181.586 128.812 181.398 128.531C181.216 128.245 180.982 128.021 180.695 127.859C180.409 127.693 180.068 127.609 179.672 127.609C179.307 127.609 178.99 127.672 178.719 127.797C178.453 127.922 178.227 128.091 178.039 128.305C177.852 128.513 177.698 128.753 177.578 129.023C177.464 129.289 177.378 129.565 177.32 129.852V131.875C177.424 132.24 177.57 132.583 177.758 132.906C177.945 133.224 178.195 133.482 178.508 133.68C178.82 133.872 179.214 133.969 179.688 133.969C180.078 133.969 180.414 133.888 180.695 133.727C180.982 133.56 181.216 133.333 181.398 133.047C181.586 132.76 181.724 132.432 181.812 132.062C181.901 131.688 181.945 131.289 181.945 130.867ZM184.859 130.867V130.688C184.859 130.078 184.948 129.513 185.125 128.992C185.302 128.466 185.557 128.01 185.891 127.625C186.224 127.234 186.628 126.932 187.102 126.719C187.576 126.5 188.107 126.391 188.695 126.391C189.289 126.391 189.823 126.5 190.297 126.719C190.776 126.932 191.182 127.234 191.516 127.625C191.854 128.01 192.112 128.466 192.289 128.992C192.466 129.513 192.555 130.078 192.555 130.688V130.867C192.555 131.477 192.466 132.042 192.289 132.562C192.112 133.083 191.854 133.539 191.516 133.93C191.182 134.315 190.779 134.617 190.305 134.836C189.836 135.049 189.305 135.156 188.711 135.156C188.117 135.156 187.583 135.049 187.109 134.836C186.635 134.617 186.229 134.315 185.891 133.93C185.557 133.539 185.302 133.083 185.125 132.562C184.948 132.042 184.859 131.477 184.859 130.867ZM186.305 130.688V130.867C186.305 131.289 186.354 131.688 186.453 132.062C186.552 132.432 186.701 132.76 186.898 133.047C187.102 133.333 187.354 133.56 187.656 133.727C187.958 133.888 188.31 133.969 188.711 133.969C189.107 133.969 189.453 133.888 189.75 133.727C190.052 133.56 190.302 133.333 190.5 133.047C190.698 132.76 190.846 132.432 190.945 132.062C191.049 131.688 191.102 131.289 191.102 130.867V130.688C191.102 130.271 191.049 129.878 190.945 129.508C190.846 129.133 190.695 128.802 190.492 128.516C190.294 128.224 190.044 127.995 189.742 127.828C189.445 127.661 189.096 127.578 188.695 127.578C188.299 127.578 187.951 127.661 187.648 127.828C187.352 127.995 187.102 128.224 186.898 128.516C186.701 128.802 186.552 129.133 186.453 129.508C186.354 129.878 186.305 130.271 186.305 130.688ZM197.875 135.156C197.286 135.156 196.753 135.057 196.273 134.859C195.799 134.656 195.391 134.372 195.047 134.008C194.708 133.643 194.448 133.211 194.266 132.711C194.083 132.211 193.992 131.664 193.992 131.07V130.742C193.992 130.055 194.094 129.443 194.297 128.906C194.5 128.365 194.776 127.906 195.125 127.531C195.474 127.156 195.87 126.872 196.312 126.68C196.755 126.487 197.214 126.391 197.688 126.391C198.292 126.391 198.812 126.495 199.25 126.703C199.693 126.911 200.055 127.203 200.336 127.578C200.617 127.948 200.826 128.385 200.961 128.891C201.096 129.391 201.164 129.938 201.164 130.531V131.18H194.852V130H199.719V129.891C199.698 129.516 199.62 129.151 199.484 128.797C199.354 128.443 199.146 128.151 198.859 127.922C198.573 127.693 198.182 127.578 197.688 127.578C197.359 127.578 197.057 127.648 196.781 127.789C196.505 127.924 196.268 128.128 196.07 128.398C195.872 128.669 195.719 129 195.609 129.391C195.5 129.781 195.445 130.232 195.445 130.742V131.07C195.445 131.471 195.5 131.849 195.609 132.203C195.724 132.552 195.888 132.859 196.102 133.125C196.32 133.391 196.583 133.599 196.891 133.75C197.203 133.901 197.557 133.977 197.953 133.977C198.464 133.977 198.896 133.872 199.25 133.664C199.604 133.456 199.914 133.177 200.18 132.828L201.055 133.523C200.872 133.799 200.641 134.062 200.359 134.312C200.078 134.562 199.732 134.766 199.32 134.922C198.914 135.078 198.432 135.156 197.875 135.156ZM204.422 126.547V135H202.977V126.547H204.422ZM209.969 126.547L205.961 131.391H203.938L203.719 130.125H205.375L208.211 126.547H209.969ZM208.414 135L205.305 131.172L206.234 130.125L210.25 135H208.414ZM214.953 126.547V135H213.5V126.547H214.953ZM217.789 126.547V127.719H210.719V126.547H217.789ZM220.523 133.281V134.445C220.523 134.919 220.404 135.419 220.164 135.945C219.924 136.477 219.589 136.919 219.156 137.273L218.336 136.703C218.503 136.474 218.643 136.24 218.758 136C218.872 135.766 218.958 135.521 219.016 135.266C219.078 135.016 219.109 134.75 219.109 134.469V133.281H220.523ZM229.719 133.969C230.062 133.969 230.38 133.898 230.672 133.758C230.964 133.617 231.203 133.424 231.391 133.18C231.578 132.93 231.685 132.646 231.711 132.328H233.086C233.06 132.828 232.891 133.294 232.578 133.727C232.271 134.154 231.867 134.5 231.367 134.766C230.867 135.026 230.318 135.156 229.719 135.156C229.083 135.156 228.529 135.044 228.055 134.82C227.586 134.596 227.195 134.289 226.883 133.898C226.576 133.508 226.344 133.06 226.188 132.555C226.036 132.044 225.961 131.505 225.961 130.938V130.609C225.961 130.042 226.036 129.505 226.188 129C226.344 128.49 226.576 128.039 226.883 127.648C227.195 127.258 227.586 126.951 228.055 126.727C228.529 126.503 229.083 126.391 229.719 126.391C230.38 126.391 230.958 126.526 231.453 126.797C231.948 127.062 232.336 127.427 232.617 127.891C232.904 128.349 233.06 128.87 233.086 129.453H231.711C231.685 129.104 231.586 128.789 231.414 128.508C231.247 128.227 231.018 128.003 230.727 127.836C230.44 127.664 230.104 127.578 229.719 127.578C229.276 127.578 228.904 127.667 228.602 127.844C228.305 128.016 228.068 128.25 227.891 128.547C227.719 128.839 227.594 129.164 227.516 129.523C227.443 129.878 227.406 130.24 227.406 130.609V130.938C227.406 131.307 227.443 131.672 227.516 132.031C227.589 132.391 227.711 132.716 227.883 133.008C228.06 133.299 228.297 133.534 228.594 133.711C228.896 133.883 229.271 133.969 229.719 133.969ZM236.234 126.547H237.68L237.555 129.711C237.523 130.513 237.432 131.206 237.281 131.789C237.13 132.372 236.938 132.87 236.703 133.281C236.469 133.688 236.206 134.029 235.914 134.305C235.628 134.581 235.331 134.812 235.023 135H234.305L234.344 133.82L234.641 133.812C234.812 133.609 234.979 133.401 235.141 133.188C235.302 132.969 235.451 132.711 235.586 132.414C235.721 132.112 235.833 131.745 235.922 131.312C236.016 130.875 236.076 130.341 236.102 129.711L236.234 126.547ZM236.594 126.547H241.68V135H240.234V127.883H236.594V126.547ZM233.977 133.812H242.766V137.492H241.32V135H235.422V137.492H233.969L233.977 133.812ZM247.875 135.156C247.286 135.156 246.753 135.057 246.273 134.859C245.799 134.656 245.391 134.372 245.047 134.008C244.708 133.643 244.448 133.211 244.266 132.711C244.083 132.211 243.992 131.664 243.992 131.07V130.742C243.992 130.055 244.094 129.443 244.297 128.906C244.5 128.365 244.776 127.906 245.125 127.531C245.474 127.156 245.87 126.872 246.312 126.68C246.755 126.487 247.214 126.391 247.688 126.391C248.292 126.391 248.812 126.495 249.25 126.703C249.693 126.911 250.055 127.203 250.336 127.578C250.617 127.948 250.826 128.385 250.961 128.891C251.096 129.391 251.164 129.938 251.164 130.531V131.18H244.852V130H249.719V129.891C249.698 129.516 249.62 129.151 249.484 128.797C249.354 128.443 249.146 128.151 248.859 127.922C248.573 127.693 248.182 127.578 247.688 127.578C247.359 127.578 247.057 127.648 246.781 127.789C246.505 127.924 246.268 128.128 246.07 128.398C245.872 128.669 245.719 129 245.609 129.391C245.5 129.781 245.445 130.232 245.445 130.742V131.07C245.445 131.471 245.5 131.849 245.609 132.203C245.724 132.552 245.888 132.859 246.102 133.125C246.32 133.391 246.583 133.599 246.891 133.75C247.203 133.901 247.557 133.977 247.953 133.977C248.464 133.977 248.896 133.872 249.25 133.664C249.604 133.456 249.914 133.177 250.18 132.828L251.055 133.523C250.872 133.799 250.641 134.062 250.359 134.312C250.078 134.562 249.732 134.766 249.32 134.922C248.914 135.078 248.432 135.156 247.875 135.156ZM258.5 126.547V127.742H254.414V126.547H258.5ZM259.773 126.547V135H258.328V126.547H259.773ZM254.062 126.547H255.516L255.297 130.625C255.26 131.255 255.201 131.812 255.117 132.297C255.039 132.776 254.93 133.188 254.789 133.531C254.654 133.875 254.482 134.156 254.273 134.375C254.07 134.589 253.826 134.747 253.539 134.852C253.253 134.951 252.922 135 252.547 135H252.094V133.727L252.406 133.703C252.63 133.688 252.82 133.635 252.977 133.547C253.138 133.458 253.273 133.328 253.383 133.156C253.492 132.979 253.581 132.753 253.648 132.477C253.721 132.201 253.776 131.872 253.812 131.492C253.854 131.112 253.885 130.669 253.906 130.164L254.062 126.547ZM267.086 133.555V129.203C267.086 128.87 267.018 128.581 266.883 128.336C266.753 128.086 266.555 127.893 266.289 127.758C266.023 127.622 265.695 127.555 265.305 127.555C264.94 127.555 264.62 127.617 264.344 127.742C264.073 127.867 263.859 128.031 263.703 128.234C263.552 128.438 263.477 128.656 263.477 128.891H262.031C262.031 128.589 262.109 128.289 262.266 127.992C262.422 127.695 262.646 127.427 262.938 127.188C263.234 126.943 263.589 126.75 264 126.609C264.417 126.464 264.88 126.391 265.391 126.391C266.005 126.391 266.547 126.495 267.016 126.703C267.49 126.911 267.859 127.227 268.125 127.648C268.396 128.065 268.531 128.589 268.531 129.219V133.156C268.531 133.438 268.555 133.737 268.602 134.055C268.654 134.372 268.729 134.646 268.828 134.875V135H267.32C267.247 134.833 267.19 134.612 267.148 134.336C267.107 134.055 267.086 133.794 267.086 133.555ZM267.336 129.875L267.352 130.891H265.891C265.479 130.891 265.112 130.924 264.789 130.992C264.466 131.055 264.195 131.151 263.977 131.281C263.758 131.411 263.591 131.576 263.477 131.773C263.362 131.966 263.305 132.193 263.305 132.453C263.305 132.719 263.365 132.961 263.484 133.18C263.604 133.398 263.784 133.573 264.023 133.703C264.268 133.828 264.568 133.891 264.922 133.891C265.365 133.891 265.755 133.797 266.094 133.609C266.432 133.422 266.701 133.193 266.898 132.922C267.102 132.651 267.211 132.388 267.227 132.133L267.844 132.828C267.807 133.047 267.708 133.289 267.547 133.555C267.385 133.82 267.169 134.076 266.898 134.32C266.633 134.56 266.315 134.76 265.945 134.922C265.581 135.078 265.169 135.156 264.711 135.156C264.138 135.156 263.635 135.044 263.203 134.82C262.776 134.596 262.443 134.297 262.203 133.922C261.969 133.542 261.852 133.117 261.852 132.648C261.852 132.195 261.94 131.797 262.117 131.453C262.294 131.104 262.549 130.815 262.883 130.586C263.216 130.352 263.617 130.174 264.086 130.055C264.555 129.935 265.078 129.875 265.656 129.875H267.336ZM275.617 130.133V131.312H271.125V130.133H275.617ZM272.383 126.547V135H270.938V126.547H272.383ZM274.383 130.867V130.688C274.383 130.078 274.471 129.513 274.648 128.992C274.826 128.466 275.081 128.01 275.414 127.625C275.753 127.234 276.156 126.932 276.625 126.719C277.099 126.5 277.63 126.391 278.219 126.391C278.818 126.391 279.354 126.5 279.828 126.719C280.302 126.932 280.706 127.234 281.039 127.625C281.378 128.01 281.635 128.466 281.812 128.992C281.99 129.513 282.078 130.078 282.078 130.688V130.867C282.078 131.477 281.99 132.042 281.812 132.562C281.635 133.083 281.38 133.539 281.047 133.93C280.714 134.315 280.31 134.617 279.836 134.836C279.362 135.049 278.828 135.156 278.234 135.156C277.641 135.156 277.107 135.049 276.633 134.836C276.159 134.617 275.753 134.315 275.414 133.93C275.081 133.539 274.826 133.083 274.648 132.562C274.471 132.042 274.383 131.477 274.383 130.867ZM275.836 130.688V130.867C275.836 131.289 275.885 131.688 275.984 132.062C276.083 132.432 276.232 132.76 276.43 133.047C276.633 133.333 276.883 133.56 277.18 133.727C277.482 133.888 277.833 133.969 278.234 133.969C278.635 133.969 278.984 133.888 279.281 133.727C279.583 133.56 279.833 133.333 280.031 133.047C280.229 132.76 280.378 132.432 280.477 132.062C280.581 131.688 280.633 131.289 280.633 130.867V130.688C280.633 130.271 280.581 129.878 280.477 129.508C280.378 129.133 280.227 128.802 280.023 128.516C279.826 128.224 279.576 127.995 279.273 127.828C278.971 127.661 278.62 127.578 278.219 127.578C277.823 127.578 277.477 127.661 277.18 127.828C276.883 127.995 276.633 128.224 276.43 128.516C276.232 128.802 276.083 129.133 275.984 129.508C275.885 129.878 275.836 130.271 275.836 130.688ZM2.54688 156.172V166.25H1.09375V154.547H2.42188L2.54688 156.172ZM8.24219 158.703V158.867C8.24219 159.482 8.16927 160.052 8.02344 160.578C7.8776 161.099 7.66406 161.552 7.38281 161.938C7.10677 162.323 6.76562 162.622 6.35938 162.836C5.95312 163.049 5.48698 163.156 4.96094 163.156C4.42448 163.156 3.95052 163.068 3.53906 162.891C3.1276 162.714 2.77865 162.456 2.49219 162.117C2.20573 161.779 1.97656 161.372 1.80469 160.898C1.63802 160.424 1.52344 159.891 1.46094 159.297V158.422C1.52344 157.797 1.64062 157.237 1.8125 156.742C1.98438 156.247 2.21094 155.826 2.49219 155.477C2.77865 155.122 3.125 154.854 3.53125 154.672C3.9375 154.484 4.40625 154.391 4.9375 154.391C5.46875 154.391 5.9401 154.495 6.35156 154.703C6.76302 154.906 7.10938 155.198 7.39062 155.578C7.67188 155.958 7.88281 156.414 8.02344 156.945C8.16927 157.471 8.24219 158.057 8.24219 158.703ZM6.78906 158.867V158.703C6.78906 158.281 6.74479 157.885 6.65625 157.516C6.56771 157.141 6.42969 156.812 6.24219 156.531C6.0599 156.245 5.82552 156.021 5.53906 155.859C5.2526 155.693 4.91146 155.609 4.51562 155.609C4.15104 155.609 3.83333 155.672 3.5625 155.797C3.29688 155.922 3.07031 156.091 2.88281 156.305C2.69531 156.513 2.54167 156.753 2.42188 157.023C2.30729 157.289 2.22135 157.565 2.16406 157.852V159.875C2.26823 160.24 2.41406 160.583 2.60156 160.906C2.78906 161.224 3.03906 161.482 3.35156 161.68C3.66406 161.872 4.05729 161.969 4.53125 161.969C4.92188 161.969 5.25781 161.888 5.53906 161.727C5.82552 161.56 6.0599 161.333 6.24219 161.047C6.42969 160.76 6.56771 160.432 6.65625 160.062C6.74479 159.688 6.78906 159.289 6.78906 158.867ZM15.0703 161.555V157.203C15.0703 156.87 15.0026 156.581 14.8672 156.336C14.737 156.086 14.5391 155.893 14.2734 155.758C14.0078 155.622 13.6797 155.555 13.2891 155.555C12.9245 155.555 12.6042 155.617 12.3281 155.742C12.0573 155.867 11.8438 156.031 11.6875 156.234C11.5365 156.438 11.4609 156.656 11.4609 156.891H10.0156C10.0156 156.589 10.0938 156.289 10.25 155.992C10.4062 155.695 10.6302 155.427 10.9219 155.188C11.2188 154.943 11.5729 154.75 11.9844 154.609C12.401 154.464 12.8646 154.391 13.375 154.391C13.9896 154.391 14.5312 154.495 15 154.703C15.474 154.911 15.8438 155.227 16.1094 155.648C16.3802 156.065 16.5156 156.589 16.5156 157.219V161.156C16.5156 161.438 16.5391 161.737 16.5859 162.055C16.638 162.372 16.7135 162.646 16.8125 162.875V163H15.3047C15.2318 162.833 15.1745 162.612 15.1328 162.336C15.0911 162.055 15.0703 161.794 15.0703 161.555ZM15.3203 157.875L15.3359 158.891H13.875C13.4635 158.891 13.0964 158.924 12.7734 158.992C12.4505 159.055 12.1797 159.151 11.9609 159.281C11.7422 159.411 11.5755 159.576 11.4609 159.773C11.3464 159.966 11.2891 160.193 11.2891 160.453C11.2891 160.719 11.349 160.961 11.4688 161.18C11.5885 161.398 11.7682 161.573 12.0078 161.703C12.2526 161.828 12.5521 161.891 12.9062 161.891C13.349 161.891 13.7396 161.797 14.0781 161.609C14.4167 161.422 14.6849 161.193 14.8828 160.922C15.0859 160.651 15.1953 160.388 15.2109 160.133L15.8281 160.828C15.7917 161.047 15.6927 161.289 15.5312 161.555C15.3698 161.82 15.1536 162.076 14.8828 162.32C14.6172 162.56 14.2995 162.76 13.9297 162.922C13.5651 163.078 13.1536 163.156 12.6953 163.156C12.1224 163.156 11.6198 163.044 11.1875 162.82C10.7604 162.596 10.4271 162.297 10.1875 161.922C9.95312 161.542 9.83594 161.117 9.83594 160.648C9.83594 160.195 9.92448 159.797 10.1016 159.453C10.2786 159.104 10.5339 158.815 10.8672 158.586C11.2005 158.352 11.6016 158.174 12.0703 158.055C12.5391 157.935 13.0625 157.875 13.6406 157.875H15.3203ZM22.1719 161.969C22.5156 161.969 22.8333 161.898 23.125 161.758C23.4167 161.617 23.6562 161.424 23.8438 161.18C24.0312 160.93 24.138 160.646 24.1641 160.328H25.5391C25.513 160.828 25.3438 161.294 25.0312 161.727C24.724 162.154 24.3203 162.5 23.8203 162.766C23.3203 163.026 22.7708 163.156 22.1719 163.156C21.5365 163.156 20.9818 163.044 20.5078 162.82C20.0391 162.596 19.6484 162.289 19.3359 161.898C19.0286 161.508 18.7969 161.06 18.6406 160.555C18.4896 160.044 18.4141 159.505 18.4141 158.938V158.609C18.4141 158.042 18.4896 157.505 18.6406 157C18.7969 156.49 19.0286 156.039 19.3359 155.648C19.6484 155.258 20.0391 154.951 20.5078 154.727C20.9818 154.503 21.5365 154.391 22.1719 154.391C22.8333 154.391 23.4115 154.526 23.9062 154.797C24.401 155.062 24.7891 155.427 25.0703 155.891C25.3568 156.349 25.513 156.87 25.5391 157.453H24.1641C24.138 157.104 24.0391 156.789 23.8672 156.508C23.7005 156.227 23.4714 156.003 23.1797 155.836C22.8932 155.664 22.5573 155.578 22.1719 155.578C21.7292 155.578 21.3568 155.667 21.0547 155.844C20.7578 156.016 20.5208 156.25 20.3438 156.547C20.1719 156.839 20.0469 157.164 19.9688 157.523C19.8958 157.878 19.8594 158.24 19.8594 158.609V158.938C19.8594 159.307 19.8958 159.672 19.9688 160.031C20.0417 160.391 20.1641 160.716 20.3359 161.008C20.513 161.299 20.75 161.534 21.0469 161.711C21.349 161.883 21.724 161.969 22.1719 161.969ZM30.5469 161.969C30.8906 161.969 31.2083 161.898 31.5 161.758C31.7917 161.617 32.0312 161.424 32.2188 161.18C32.4062 160.93 32.513 160.646 32.5391 160.328H33.9141C33.888 160.828 33.7188 161.294 33.4062 161.727C33.099 162.154 32.6953 162.5 32.1953 162.766C31.6953 163.026 31.1458 163.156 30.5469 163.156C29.9115 163.156 29.3568 163.044 28.8828 162.82C28.4141 162.596 28.0234 162.289 27.7109 161.898C27.4036 161.508 27.1719 161.06 27.0156 160.555C26.8646 160.044 26.7891 159.505 26.7891 158.938V158.609C26.7891 158.042 26.8646 157.505 27.0156 157C27.1719 156.49 27.4036 156.039 27.7109 155.648C28.0234 155.258 28.4141 154.951 28.8828 154.727C29.3568 154.503 29.9115 154.391 30.5469 154.391C31.2083 154.391 31.7865 154.526 32.2812 154.797C32.776 155.062 33.1641 155.427 33.4453 155.891C33.7318 156.349 33.888 156.87 33.9141 157.453H32.5391C32.513 157.104 32.4141 156.789 32.2422 156.508C32.0755 156.227 31.8464 156.003 31.5547 155.836C31.2682 155.664 30.9323 155.578 30.5469 155.578C30.1042 155.578 29.7318 155.667 29.4297 155.844C29.1328 156.016 28.8958 156.25 28.7188 156.547C28.5469 156.839 28.4219 157.164 28.3438 157.523C28.2708 157.878 28.2344 158.24 28.2344 158.609V158.938C28.2344 159.307 28.2708 159.672 28.3438 160.031C28.4167 160.391 28.5391 160.716 28.7109 161.008C28.888 161.299 29.125 161.534 29.4219 161.711C29.724 161.883 30.099 161.969 30.5469 161.969ZM41.9141 154.547V163H40.4688V154.547H41.9141ZM41.4219 158.43V159.617C41.1302 159.727 40.8333 159.826 40.5312 159.914C40.2344 159.997 39.9193 160.065 39.5859 160.117C39.2578 160.164 38.901 160.188 38.5156 160.188C37.849 160.188 37.2708 160.073 36.7812 159.844C36.2917 159.609 35.9141 159.258 35.6484 158.789C35.3828 158.315 35.25 157.719 35.25 157V154.531H36.6953V157C36.6953 157.469 36.7656 157.849 36.9062 158.141C37.0469 158.432 37.2526 158.648 37.5234 158.789C37.7943 158.924 38.125 158.992 38.5156 158.992C38.8906 158.992 39.2422 158.969 39.5703 158.922C39.9036 158.87 40.2214 158.802 40.5234 158.719C40.8307 158.635 41.1302 158.539 41.4219 158.43ZM47.75 163.156C47.1615 163.156 46.6276 163.057 46.1484 162.859C45.6745 162.656 45.2656 162.372 44.9219 162.008C44.5833 161.643 44.3229 161.211 44.1406 160.711C43.9583 160.211 43.8672 159.664 43.8672 159.07V158.742C43.8672 158.055 43.9688 157.443 44.1719 156.906C44.375 156.365 44.651 155.906 45 155.531C45.349 155.156 45.7448 154.872 46.1875 154.68C46.6302 154.487 47.0885 154.391 47.5625 154.391C48.1667 154.391 48.6875 154.495 49.125 154.703C49.5677 154.911 49.9297 155.203 50.2109 155.578C50.4922 155.948 50.7005 156.385 50.8359 156.891C50.9714 157.391 51.0391 157.938 51.0391 158.531V159.18H44.7266V158H49.5938V157.891C49.5729 157.516 49.4948 157.151 49.3594 156.797C49.2292 156.443 49.0208 156.151 48.7344 155.922C48.4479 155.693 48.0573 155.578 47.5625 155.578C47.2344 155.578 46.9323 155.648 46.6562 155.789C46.3802 155.924 46.1432 156.128 45.9453 156.398C45.7474 156.669 45.5938 157 45.4844 157.391C45.375 157.781 45.3203 158.232 45.3203 158.742V159.07C45.3203 159.471 45.375 159.849 45.4844 160.203C45.599 160.552 45.763 160.859 45.9766 161.125C46.1953 161.391 46.4583 161.599 46.7656 161.75C47.0781 161.901 47.4323 161.977 47.8281 161.977C48.3385 161.977 48.7708 161.872 49.125 161.664C49.4792 161.456 49.7891 161.177 50.0547 160.828L50.9297 161.523C50.7474 161.799 50.5156 162.062 50.2344 162.312C49.9531 162.562 49.6068 162.766 49.1953 162.922C48.7891 163.078 48.3073 163.156 47.75 163.156ZM56.0781 154.547V163H54.625V154.547H56.0781ZM58.9141 154.547V155.719H51.8438V154.547H58.9141ZM64.4297 163V154.547H65.875V161.812H69.7656V154.547H71.2188V163H64.4297ZM72.2188 161.812L72.0781 165.508H70.7891V163H69.6875V161.812H72.2188ZM77.2969 163.156C76.7083 163.156 76.1745 163.057 75.6953 162.859C75.2214 162.656 74.8125 162.372 74.4688 162.008C74.1302 161.643 73.8698 161.211 73.6875 160.711C73.5052 160.211 73.4141 159.664 73.4141 159.07V158.742C73.4141 158.055 73.5156 157.443 73.7188 156.906C73.9219 156.365 74.1979 155.906 74.5469 155.531C74.8958 155.156 75.2917 154.872 75.7344 154.68C76.1771 154.487 76.6354 154.391 77.1094 154.391C77.7135 154.391 78.2344 154.495 78.6719 154.703C79.1146 154.911 79.4766 155.203 79.7578 155.578C80.0391 155.948 80.2474 156.385 80.3828 156.891C80.5182 157.391 80.5859 157.938 80.5859 158.531V159.18H74.2734V158H79.1406V157.891C79.1198 157.516 79.0417 157.151 78.9062 156.797C78.776 156.443 78.5677 156.151 78.2812 155.922C77.9948 155.693 77.6042 155.578 77.1094 155.578C76.7812 155.578 76.4792 155.648 76.2031 155.789C75.9271 155.924 75.6901 156.128 75.4922 156.398C75.2943 156.669 75.1406 157 75.0312 157.391C74.9219 157.781 74.8672 158.232 74.8672 158.742V159.07C74.8672 159.471 74.9219 159.849 75.0312 160.203C75.1458 160.552 75.3099 160.859 75.5234 161.125C75.7422 161.391 76.0052 161.599 76.3125 161.75C76.625 161.901 76.9792 161.977 77.375 161.977C77.8854 161.977 78.3177 161.872 78.6719 161.664C79.026 161.456 79.3359 161.177 79.6016 160.828L80.4766 161.523C80.2943 161.799 80.0625 162.062 79.7812 162.312C79.5 162.562 79.1536 162.766 78.7422 162.922C78.3359 163.078 77.8542 163.156 77.2969 163.156ZM88.0078 158.211V159.383H83.5391V158.211H88.0078ZM83.8438 154.547V163H82.3984V154.547H83.8438ZM89.1797 154.547V163H87.7266V154.547H89.1797ZM92.6953 157.453H95.2344C95.9167 157.453 96.4922 157.573 96.9609 157.812C97.4297 158.047 97.7839 158.372 98.0234 158.789C98.2682 159.201 98.3906 159.669 98.3906 160.195C98.3906 160.586 98.3229 160.953 98.1875 161.297C98.0521 161.635 97.849 161.932 97.5781 162.188C97.3125 162.443 96.9818 162.643 96.5859 162.789C96.1953 162.93 95.7448 163 95.2344 163H91.6406V154.547H93.0859V161.812H95.2344C95.651 161.812 95.9844 161.737 96.2344 161.586C96.4844 161.435 96.6641 161.24 96.7734 161C96.8828 160.76 96.9375 160.51 96.9375 160.25C96.9375 159.995 96.8828 159.745 96.7734 159.5C96.6641 159.255 96.4844 159.052 96.2344 158.891C95.9844 158.724 95.651 158.641 95.2344 158.641H92.6953V157.453ZM101.398 154.547V163H99.9531V154.547H101.398ZM111.055 158.961H109.5V158.07H110.938C111.339 158.07 111.656 158.021 111.891 157.922C112.125 157.818 112.292 157.674 112.391 157.492C112.49 157.31 112.539 157.096 112.539 156.852C112.539 156.633 112.482 156.427 112.367 156.234C112.258 156.036 112.081 155.878 111.836 155.758C111.591 155.633 111.263 155.57 110.852 155.57C110.518 155.57 110.216 155.63 109.945 155.75C109.674 155.865 109.458 156.023 109.297 156.227C109.141 156.424 109.062 156.648 109.062 156.898H107.617C107.617 156.383 107.763 155.94 108.055 155.57C108.352 155.195 108.745 154.906 109.234 154.703C109.729 154.5 110.268 154.398 110.852 154.398C111.341 154.398 111.779 154.453 112.164 154.562C112.555 154.667 112.885 154.823 113.156 155.031C113.427 155.234 113.633 155.49 113.773 155.797C113.919 156.099 113.992 156.451 113.992 156.852C113.992 157.138 113.924 157.409 113.789 157.664C113.654 157.919 113.458 158.146 113.203 158.344C112.948 158.536 112.638 158.688 112.273 158.797C111.914 158.906 111.508 158.961 111.055 158.961ZM109.5 158.414H111.055C111.56 158.414 112.005 158.464 112.391 158.562C112.776 158.656 113.099 158.797 113.359 158.984C113.62 159.172 113.815 159.404 113.945 159.68C114.081 159.951 114.148 160.263 114.148 160.617C114.148 161.013 114.068 161.37 113.906 161.688C113.75 162 113.526 162.266 113.234 162.484C112.943 162.703 112.594 162.87 112.188 162.984C111.786 163.099 111.341 163.156 110.852 163.156C110.305 163.156 109.773 163.062 109.258 162.875C108.742 162.688 108.318 162.398 107.984 162.008C107.651 161.612 107.484 161.109 107.484 160.5H108.93C108.93 160.755 109.01 160.997 109.172 161.227C109.333 161.456 109.557 161.641 109.844 161.781C110.135 161.922 110.471 161.992 110.852 161.992C111.258 161.992 111.596 161.93 111.867 161.805C112.138 161.68 112.341 161.513 112.477 161.305C112.617 161.096 112.688 160.87 112.688 160.625C112.688 160.307 112.625 160.052 112.5 159.859C112.375 159.667 112.182 159.526 111.922 159.438C111.667 159.344 111.339 159.297 110.938 159.297H109.5V158.414ZM121.008 161.555V157.203C121.008 156.87 120.94 156.581 120.805 156.336C120.674 156.086 120.477 155.893 120.211 155.758C119.945 155.622 119.617 155.555 119.227 155.555C118.862 155.555 118.542 155.617 118.266 155.742C117.995 155.867 117.781 156.031 117.625 156.234C117.474 156.438 117.398 156.656 117.398 156.891H115.953C115.953 156.589 116.031 156.289 116.188 155.992C116.344 155.695 116.568 155.427 116.859 155.188C117.156 154.943 117.51 154.75 117.922 154.609C118.339 154.464 118.802 154.391 119.312 154.391C119.927 154.391 120.469 154.495 120.938 154.703C121.411 154.911 121.781 155.227 122.047 155.648C122.318 156.065 122.453 156.589 122.453 157.219V161.156C122.453 161.438 122.477 161.737 122.523 162.055C122.576 162.372 122.651 162.646 122.75 162.875V163H121.242C121.169 162.833 121.112 162.612 121.07 162.336C121.029 162.055 121.008 161.794 121.008 161.555ZM121.258 157.875L121.273 158.891H119.812C119.401 158.891 119.034 158.924 118.711 158.992C118.388 159.055 118.117 159.151 117.898 159.281C117.68 159.411 117.513 159.576 117.398 159.773C117.284 159.966 117.227 160.193 117.227 160.453C117.227 160.719 117.286 160.961 117.406 161.18C117.526 161.398 117.706 161.573 117.945 161.703C118.19 161.828 118.49 161.891 118.844 161.891C119.286 161.891 119.677 161.797 120.016 161.609C120.354 161.422 120.622 161.193 120.82 160.922C121.023 160.651 121.133 160.388 121.148 160.133L121.766 160.828C121.729 161.047 121.63 161.289 121.469 161.555C121.307 161.82 121.091 162.076 120.82 162.32C120.555 162.56 120.237 162.76 119.867 162.922C119.503 163.078 119.091 163.156 118.633 163.156C118.06 163.156 117.557 163.044 117.125 162.82C116.698 162.596 116.365 162.297 116.125 161.922C115.891 161.542 115.773 161.117 115.773 160.648C115.773 160.195 115.862 159.797 116.039 159.453C116.216 159.104 116.471 158.815 116.805 158.586C117.138 158.352 117.539 158.174 118.008 158.055C118.477 157.935 119 157.875 119.578 157.875H121.258ZM130.141 156.172V166.25H128.688V154.547H130.016L130.141 156.172ZM135.836 158.703V158.867C135.836 159.482 135.763 160.052 135.617 160.578C135.471 161.099 135.258 161.552 134.977 161.938C134.701 162.323 134.359 162.622 133.953 162.836C133.547 163.049 133.081 163.156 132.555 163.156C132.018 163.156 131.544 163.068 131.133 162.891C130.721 162.714 130.372 162.456 130.086 162.117C129.799 161.779 129.57 161.372 129.398 160.898C129.232 160.424 129.117 159.891 129.055 159.297V158.422C129.117 157.797 129.234 157.237 129.406 156.742C129.578 156.247 129.805 155.826 130.086 155.477C130.372 155.122 130.719 154.854 131.125 154.672C131.531 154.484 132 154.391 132.531 154.391C133.062 154.391 133.534 154.495 133.945 154.703C134.357 154.906 134.703 155.198 134.984 155.578C135.266 155.958 135.477 156.414 135.617 156.945C135.763 157.471 135.836 158.057 135.836 158.703ZM134.383 158.867V158.703C134.383 158.281 134.339 157.885 134.25 157.516C134.161 157.141 134.023 156.812 133.836 156.531C133.654 156.245 133.419 156.021 133.133 155.859C132.846 155.693 132.505 155.609 132.109 155.609C131.745 155.609 131.427 155.672 131.156 155.797C130.891 155.922 130.664 156.091 130.477 156.305C130.289 156.513 130.135 156.753 130.016 157.023C129.901 157.289 129.815 157.565 129.758 157.852V159.875C129.862 160.24 130.008 160.583 130.195 160.906C130.383 161.224 130.633 161.482 130.945 161.68C131.258 161.872 131.651 161.969 132.125 161.969C132.516 161.969 132.852 161.888 133.133 161.727C133.419 161.56 133.654 161.333 133.836 161.047C134.023 160.76 134.161 160.432 134.25 160.062C134.339 159.688 134.383 159.289 134.383 158.867ZM142.664 161.555V157.203C142.664 156.87 142.596 156.581 142.461 156.336C142.331 156.086 142.133 155.893 141.867 155.758C141.602 155.622 141.273 155.555 140.883 155.555C140.518 155.555 140.198 155.617 139.922 155.742C139.651 155.867 139.438 156.031 139.281 156.234C139.13 156.438 139.055 156.656 139.055 156.891H137.609C137.609 156.589 137.688 156.289 137.844 155.992C138 155.695 138.224 155.427 138.516 155.188C138.812 154.943 139.167 154.75 139.578 154.609C139.995 154.464 140.458 154.391 140.969 154.391C141.583 154.391 142.125 154.495 142.594 154.703C143.068 154.911 143.438 155.227 143.703 155.648C143.974 156.065 144.109 156.589 144.109 157.219V161.156C144.109 161.438 144.133 161.737 144.18 162.055C144.232 162.372 144.307 162.646 144.406 162.875V163H142.898C142.826 162.833 142.768 162.612 142.727 162.336C142.685 162.055 142.664 161.794 142.664 161.555ZM142.914 157.875L142.93 158.891H141.469C141.057 158.891 140.69 158.924 140.367 158.992C140.044 159.055 139.773 159.151 139.555 159.281C139.336 159.411 139.169 159.576 139.055 159.773C138.94 159.966 138.883 160.193 138.883 160.453C138.883 160.719 138.943 160.961 139.062 161.18C139.182 161.398 139.362 161.573 139.602 161.703C139.846 161.828 140.146 161.891 140.5 161.891C140.943 161.891 141.333 161.797 141.672 161.609C142.01 161.422 142.279 161.193 142.477 160.922C142.68 160.651 142.789 160.388 142.805 160.133L143.422 160.828C143.385 161.047 143.286 161.289 143.125 161.555C142.964 161.82 142.747 162.076 142.477 162.32C142.211 162.56 141.893 162.76 141.523 162.922C141.159 163.078 140.747 163.156 140.289 163.156C139.716 163.156 139.214 163.044 138.781 162.82C138.354 162.596 138.021 162.297 137.781 161.922C137.547 161.542 137.43 161.117 137.43 160.648C137.43 160.195 137.518 159.797 137.695 159.453C137.872 159.104 138.128 158.815 138.461 158.586C138.794 158.352 139.195 158.174 139.664 158.055C140.133 157.935 140.656 157.875 141.234 157.875H142.914ZM151.805 150.867H152.992C152.992 151.378 152.914 151.784 152.758 152.086C152.602 152.383 152.388 152.612 152.117 152.773C151.852 152.935 151.549 153.057 151.211 153.141C150.878 153.224 150.531 153.305 150.172 153.383C149.724 153.477 149.307 153.625 148.922 153.828C148.542 154.026 148.214 154.307 147.938 154.672C147.667 155.036 147.466 155.51 147.336 156.094C147.211 156.677 147.177 157.398 147.234 158.258V158.977H146.047V158.258C146.047 157.294 146.138 156.453 146.32 155.734C146.508 155.016 146.771 154.409 147.109 153.914C147.448 153.419 147.849 153.026 148.312 152.734C148.781 152.443 149.297 152.242 149.859 152.133C150.266 152.055 150.615 151.971 150.906 151.883C151.198 151.789 151.419 151.664 151.57 151.508C151.727 151.352 151.805 151.138 151.805 150.867ZM150.094 155.031C150.646 155.031 151.138 155.128 151.57 155.32C152.003 155.513 152.37 155.781 152.672 156.125C152.974 156.469 153.203 156.875 153.359 157.344C153.521 157.807 153.602 158.312 153.602 158.859V159.031C153.602 159.62 153.516 160.167 153.344 160.672C153.177 161.172 152.93 161.609 152.602 161.984C152.279 162.354 151.883 162.643 151.414 162.852C150.951 163.06 150.422 163.164 149.828 163.164C149.234 163.164 148.703 163.06 148.234 162.852C147.771 162.643 147.375 162.354 147.047 161.984C146.719 161.609 146.469 161.172 146.297 160.672C146.13 160.167 146.047 159.62 146.047 159.031V158.859C146.047 158.729 146.07 158.602 146.117 158.477C146.164 158.352 146.221 158.224 146.289 158.094C146.362 157.964 146.427 157.826 146.484 157.68C146.677 157.211 146.94 156.776 147.273 156.375C147.612 155.974 148.016 155.651 148.484 155.406C148.958 155.156 149.495 155.031 150.094 155.031ZM149.812 156.211C149.281 156.211 148.844 156.333 148.5 156.578C148.161 156.823 147.909 157.148 147.742 157.555C147.576 157.956 147.492 158.391 147.492 158.859V159.031C147.492 159.427 147.539 159.802 147.633 160.156C147.727 160.51 147.867 160.826 148.055 161.102C148.247 161.372 148.49 161.586 148.781 161.742C149.078 161.898 149.427 161.977 149.828 161.977C150.229 161.977 150.576 161.898 150.867 161.742C151.159 161.586 151.398 161.372 151.586 161.102C151.773 160.826 151.914 160.51 152.008 160.156C152.102 159.802 152.148 159.427 152.148 159.031V158.859C152.148 158.505 152.102 158.169 152.008 157.852C151.914 157.534 151.771 157.253 151.578 157.008C151.391 156.763 151.148 156.57 150.852 156.43C150.56 156.284 150.214 156.211 149.812 156.211ZM154.859 158.867V158.688C154.859 158.078 154.948 157.513 155.125 156.992C155.302 156.466 155.557 156.01 155.891 155.625C156.224 155.234 156.628 154.932 157.102 154.719C157.576 154.5 158.107 154.391 158.695 154.391C159.289 154.391 159.823 154.5 160.297 154.719C160.776 154.932 161.182 155.234 161.516 155.625C161.854 156.01 162.112 156.466 162.289 156.992C162.466 157.513 162.555 158.078 162.555 158.688V158.867C162.555 159.477 162.466 160.042 162.289 160.562C162.112 161.083 161.854 161.539 161.516 161.93C161.182 162.315 160.779 162.617 160.305 162.836C159.836 163.049 159.305 163.156 158.711 163.156C158.117 163.156 157.583 163.049 157.109 162.836C156.635 162.617 156.229 162.315 155.891 161.93C155.557 161.539 155.302 161.083 155.125 160.562C154.948 160.042 154.859 159.477 154.859 158.867ZM156.305 158.688V158.867C156.305 159.289 156.354 159.688 156.453 160.062C156.552 160.432 156.701 160.76 156.898 161.047C157.102 161.333 157.354 161.56 157.656 161.727C157.958 161.888 158.31 161.969 158.711 161.969C159.107 161.969 159.453 161.888 159.75 161.727C160.052 161.56 160.302 161.333 160.5 161.047C160.698 160.76 160.846 160.432 160.945 160.062C161.049 159.688 161.102 159.289 161.102 158.867V158.688C161.102 158.271 161.049 157.878 160.945 157.508C160.846 157.133 160.695 156.802 160.492 156.516C160.294 156.224 160.044 155.995 159.742 155.828C159.445 155.661 159.096 155.578 158.695 155.578C158.299 155.578 157.951 155.661 157.648 155.828C157.352 155.995 157.102 156.224 156.898 156.516C156.701 156.802 156.552 157.133 156.453 157.508C156.354 157.878 156.305 158.271 156.305 158.688ZM167.641 154.547V163H166.188V154.547H167.641ZM170.477 154.547V155.719H163.406V154.547H170.477ZM174.367 162.125L176.719 154.547H178.266L174.875 164.305C174.797 164.513 174.693 164.737 174.562 164.977C174.438 165.221 174.276 165.453 174.078 165.672C173.88 165.891 173.641 166.068 173.359 166.203C173.083 166.344 172.753 166.414 172.367 166.414C172.253 166.414 172.107 166.398 171.93 166.367C171.753 166.336 171.628 166.31 171.555 166.289L171.547 165.117C171.589 165.122 171.654 165.128 171.742 165.133C171.836 165.143 171.901 165.148 171.938 165.148C172.266 165.148 172.544 165.104 172.773 165.016C173.003 164.932 173.195 164.789 173.352 164.586C173.513 164.388 173.651 164.115 173.766 163.766L174.367 162.125ZM172.641 154.547L174.836 161.109L175.211 162.633L174.172 163.164L171.062 154.547H172.641ZM185.102 160.711L189 154.547H190.453V163H189V156.836L185.102 163H183.664V154.547H185.102V160.711ZM196.359 158.867V158.688C196.359 158.078 196.448 157.513 196.625 156.992C196.802 156.466 197.057 156.01 197.391 155.625C197.724 155.234 198.128 154.932 198.602 154.719C199.076 154.5 199.607 154.391 200.195 154.391C200.789 154.391 201.323 154.5 201.797 154.719C202.276 154.932 202.682 155.234 203.016 155.625C203.354 156.01 203.612 156.466 203.789 156.992C203.966 157.513 204.055 158.078 204.055 158.688V158.867C204.055 159.477 203.966 160.042 203.789 160.562C203.612 161.083 203.354 161.539 203.016 161.93C202.682 162.315 202.279 162.617 201.805 162.836C201.336 163.049 200.805 163.156 200.211 163.156C199.617 163.156 199.083 163.049 198.609 162.836C198.135 162.617 197.729 162.315 197.391 161.93C197.057 161.539 196.802 161.083 196.625 160.562C196.448 160.042 196.359 159.477 196.359 158.867ZM197.805 158.688V158.867C197.805 159.289 197.854 159.688 197.953 160.062C198.052 160.432 198.201 160.76 198.398 161.047C198.602 161.333 198.854 161.56 199.156 161.727C199.458 161.888 199.81 161.969 200.211 161.969C200.607 161.969 200.953 161.888 201.25 161.727C201.552 161.56 201.802 161.333 202 161.047C202.198 160.76 202.346 160.432 202.445 160.062C202.549 159.688 202.602 159.289 202.602 158.867V158.688C202.602 158.271 202.549 157.878 202.445 157.508C202.346 157.133 202.195 156.802 201.992 156.516C201.794 156.224 201.544 155.995 201.242 155.828C200.945 155.661 200.596 155.578 200.195 155.578C199.799 155.578 199.451 155.661 199.148 155.828C198.852 155.995 198.602 156.224 198.398 156.516C198.201 156.802 198.052 157.133 197.953 157.508C197.854 157.878 197.805 158.271 197.805 158.688ZM211.289 150.867H212.477C212.477 151.378 212.398 151.784 212.242 152.086C212.086 152.383 211.872 152.612 211.602 152.773C211.336 152.935 211.034 153.057 210.695 153.141C210.362 153.224 210.016 153.305 209.656 153.383C209.208 153.477 208.792 153.625 208.406 153.828C208.026 154.026 207.698 154.307 207.422 154.672C207.151 155.036 206.951 155.51 206.82 156.094C206.695 156.677 206.661 157.398 206.719 158.258V158.977H205.531V158.258C205.531 157.294 205.622 156.453 205.805 155.734C205.992 155.016 206.255 154.409 206.594 153.914C206.932 153.419 207.333 153.026 207.797 152.734C208.266 152.443 208.781 152.242 209.344 152.133C209.75 152.055 210.099 151.971 210.391 151.883C210.682 151.789 210.904 151.664 211.055 151.508C211.211 151.352 211.289 151.138 211.289 150.867ZM209.578 155.031C210.13 155.031 210.622 155.128 211.055 155.32C211.487 155.513 211.854 155.781 212.156 156.125C212.458 156.469 212.688 156.875 212.844 157.344C213.005 157.807 213.086 158.312 213.086 158.859V159.031C213.086 159.62 213 160.167 212.828 160.672C212.661 161.172 212.414 161.609 212.086 161.984C211.763 162.354 211.367 162.643 210.898 162.852C210.435 163.06 209.906 163.164 209.312 163.164C208.719 163.164 208.188 163.06 207.719 162.852C207.255 162.643 206.859 162.354 206.531 161.984C206.203 161.609 205.953 161.172 205.781 160.672C205.615 160.167 205.531 159.62 205.531 159.031V158.859C205.531 158.729 205.555 158.602 205.602 158.477C205.648 158.352 205.706 158.224 205.773 158.094C205.846 157.964 205.911 157.826 205.969 157.68C206.161 157.211 206.424 156.776 206.758 156.375C207.096 155.974 207.5 155.651 207.969 155.406C208.443 155.156 208.979 155.031 209.578 155.031ZM209.297 156.211C208.766 156.211 208.328 156.333 207.984 156.578C207.646 156.823 207.393 157.148 207.227 157.555C207.06 157.956 206.977 158.391 206.977 158.859V159.031C206.977 159.427 207.023 159.802 207.117 160.156C207.211 160.51 207.352 160.826 207.539 161.102C207.732 161.372 207.974 161.586 208.266 161.742C208.562 161.898 208.911 161.977 209.312 161.977C209.714 161.977 210.06 161.898 210.352 161.742C210.643 161.586 210.883 161.372 211.07 161.102C211.258 160.826 211.398 160.51 211.492 160.156C211.586 159.802 211.633 159.427 211.633 159.031V158.859C211.633 158.505 211.586 158.169 211.492 157.852C211.398 157.534 211.255 157.253 211.062 157.008C210.875 156.763 210.633 156.57 210.336 156.43C210.044 156.284 209.698 156.211 209.297 156.211ZM217.57 154.547V155.734H213.859V154.547H217.57ZM217.43 157.453H219.969C220.651 157.453 221.227 157.573 221.695 157.812C222.164 158.047 222.518 158.372 222.758 158.789C223.003 159.201 223.125 159.669 223.125 160.195C223.125 160.586 223.057 160.953 222.922 161.297C222.786 161.635 222.583 161.932 222.312 162.188C222.047 162.443 221.716 162.643 221.32 162.789C220.93 162.93 220.479 163 219.969 163H216.367V154.547H217.82V161.812H219.969C220.385 161.812 220.716 161.737 220.961 161.586C221.211 161.435 221.391 161.24 221.5 161C221.609 160.76 221.664 160.51 221.664 160.25C221.664 159.995 221.609 159.745 221.5 159.5C221.391 159.255 221.211 159.052 220.961 158.891C220.716 158.724 220.385 158.641 219.969 158.641H217.43V157.453ZM226.375 158.969H227.938L225.492 163H223.93L226.375 158.969ZM227.586 154.547H231.117V163H229.672V155.719H227.586C227.174 155.719 226.839 155.789 226.578 155.93C226.318 156.065 226.128 156.242 226.008 156.461C225.888 156.68 225.828 156.906 225.828 157.141C225.828 157.37 225.883 157.591 225.992 157.805C226.102 158.013 226.273 158.185 226.508 158.32C226.742 158.456 227.044 158.523 227.414 158.523H230.062V159.711H227.414C226.93 159.711 226.5 159.646 226.125 159.516C225.75 159.385 225.432 159.206 225.172 158.977C224.911 158.742 224.714 158.469 224.578 158.156C224.443 157.839 224.375 157.495 224.375 157.125C224.375 156.755 224.445 156.414 224.586 156.102C224.732 155.789 224.94 155.516 225.211 155.281C225.487 155.047 225.823 154.867 226.219 154.742C226.62 154.612 227.076 154.547 227.586 154.547ZM236.828 161.969C237.172 161.969 237.49 161.898 237.781 161.758C238.073 161.617 238.312 161.424 238.5 161.18C238.688 160.93 238.794 160.646 238.82 160.328H240.195C240.169 160.828 240 161.294 239.688 161.727C239.38 162.154 238.977 162.5 238.477 162.766C237.977 163.026 237.427 163.156 236.828 163.156C236.193 163.156 235.638 163.044 235.164 162.82C234.695 162.596 234.305 162.289 233.992 161.898C233.685 161.508 233.453 161.06 233.297 160.555C233.146 160.044 233.07 159.505 233.07 158.938V158.609C233.07 158.042 233.146 157.505 233.297 157C233.453 156.49 233.685 156.039 233.992 155.648C234.305 155.258 234.695 154.951 235.164 154.727C235.638 154.503 236.193 154.391 236.828 154.391C237.49 154.391 238.068 154.526 238.562 154.797C239.057 155.062 239.445 155.427 239.727 155.891C240.013 156.349 240.169 156.87 240.195 157.453H238.82C238.794 157.104 238.695 156.789 238.523 156.508C238.357 156.227 238.128 156.003 237.836 155.836C237.549 155.664 237.214 155.578 236.828 155.578C236.385 155.578 236.013 155.667 235.711 155.844C235.414 156.016 235.177 156.25 235 156.547C234.828 156.839 234.703 157.164 234.625 157.523C234.552 157.878 234.516 158.24 234.516 158.609V158.938C234.516 159.307 234.552 159.672 234.625 160.031C234.698 160.391 234.82 160.716 234.992 161.008C235.169 161.299 235.406 161.534 235.703 161.711C236.005 161.883 236.38 161.969 236.828 161.969ZM247.555 158.211V159.383H243.086V158.211H247.555ZM243.391 154.547V163H241.945V154.547H243.391ZM248.727 154.547V163H247.273V154.547H248.727ZM255.867 158.133V159.312H251.375V158.133H255.867ZM252.633 154.547V163H251.188V154.547H252.633ZM254.633 158.867V158.688C254.633 158.078 254.721 157.513 254.898 156.992C255.076 156.466 255.331 156.01 255.664 155.625C256.003 155.234 256.406 154.932 256.875 154.719C257.349 154.5 257.88 154.391 258.469 154.391C259.068 154.391 259.604 154.5 260.078 154.719C260.552 154.932 260.956 155.234 261.289 155.625C261.628 156.01 261.885 156.466 262.062 156.992C262.24 157.513 262.328 158.078 262.328 158.688V158.867C262.328 159.477 262.24 160.042 262.062 160.562C261.885 161.083 261.63 161.539 261.297 161.93C260.964 162.315 260.56 162.617 260.086 162.836C259.612 163.049 259.078 163.156 258.484 163.156C257.891 163.156 257.357 163.049 256.883 162.836C256.409 162.617 256.003 162.315 255.664 161.93C255.331 161.539 255.076 161.083 254.898 160.562C254.721 160.042 254.633 159.477 254.633 158.867ZM256.086 158.688V158.867C256.086 159.289 256.135 159.688 256.234 160.062C256.333 160.432 256.482 160.76 256.68 161.047C256.883 161.333 257.133 161.56 257.43 161.727C257.732 161.888 258.083 161.969 258.484 161.969C258.885 161.969 259.234 161.888 259.531 161.727C259.833 161.56 260.083 161.333 260.281 161.047C260.479 160.76 260.628 160.432 260.727 160.062C260.831 159.688 260.883 159.289 260.883 158.867V158.688C260.883 158.271 260.831 157.878 260.727 157.508C260.628 157.133 260.477 156.802 260.273 156.516C260.076 156.224 259.826 155.995 259.523 155.828C259.221 155.661 258.87 155.578 258.469 155.578C258.073 155.578 257.727 155.661 257.43 155.828C257.133 155.995 256.883 156.224 256.68 156.516C256.482 156.802 256.333 157.133 256.234 157.508C256.135 157.878 256.086 158.271 256.086 158.688ZM265.43 161.281V162.445C265.43 162.919 265.31 163.419 265.07 163.945C264.831 164.477 264.495 164.919 264.062 165.273L263.242 164.703C263.409 164.474 263.549 164.24 263.664 164C263.779 163.766 263.865 163.521 263.922 163.266C263.984 163.016 264.016 162.75 264.016 162.469V161.281H265.43ZM272.812 154.547V163H271.367V154.547H272.812ZM278.359 154.547L274.352 159.391H272.328L272.109 158.125H273.766L276.602 154.547H278.359ZM276.805 163L273.695 159.172L274.625 158.125L278.641 163H276.805ZM284.883 161.555V157.203C284.883 156.87 284.815 156.581 284.68 156.336C284.549 156.086 284.352 155.893 284.086 155.758C283.82 155.622 283.492 155.555 283.102 155.555C282.737 155.555 282.417 155.617 282.141 155.742C281.87 155.867 281.656 156.031 281.5 156.234C281.349 156.438 281.273 156.656 281.273 156.891H279.828C279.828 156.589 279.906 156.289 280.062 155.992C280.219 155.695 280.443 155.427 280.734 155.188C281.031 154.943 281.385 154.75 281.797 154.609C282.214 154.464 282.677 154.391 283.188 154.391C283.802 154.391 284.344 154.495 284.812 154.703C285.286 154.911 285.656 155.227 285.922 155.648C286.193 156.065 286.328 156.589 286.328 157.219V161.156C286.328 161.438 286.352 161.737 286.398 162.055C286.451 162.372 286.526 162.646 286.625 162.875V163H285.117C285.044 162.833 284.987 162.612 284.945 162.336C284.904 162.055 284.883 161.794 284.883 161.555ZM285.133 157.875L285.148 158.891H283.688C283.276 158.891 282.909 158.924 282.586 158.992C282.263 159.055 281.992 159.151 281.773 159.281C281.555 159.411 281.388 159.576 281.273 159.773C281.159 159.966 281.102 160.193 281.102 160.453C281.102 160.719 281.161 160.961 281.281 161.18C281.401 161.398 281.581 161.573 281.82 161.703C282.065 161.828 282.365 161.891 282.719 161.891C283.161 161.891 283.552 161.797 283.891 161.609C284.229 161.422 284.497 161.193 284.695 160.922C284.898 160.651 285.008 160.388 285.023 160.133L285.641 160.828C285.604 161.047 285.505 161.289 285.344 161.555C285.182 161.82 284.966 162.076 284.695 162.32C284.43 162.56 284.112 162.76 283.742 162.922C283.378 163.078 282.966 163.156 282.508 163.156C281.935 163.156 281.432 163.044 281 162.82C280.573 162.596 280.24 162.297 280 161.922C279.766 161.542 279.648 161.117 279.648 160.648C279.648 160.195 279.737 159.797 279.914 159.453C280.091 159.104 280.346 158.815 280.68 158.586C281.013 158.352 281.414 158.174 281.883 158.055C282.352 157.935 282.875 157.875 283.453 157.875H285.133ZM290.172 154.547V163H288.727V154.547H290.172ZM295.719 154.547L291.711 159.391H289.688L289.469 158.125H291.125L293.961 154.547H295.719ZM294.164 163L291.055 159.172L291.984 158.125L296 163H294.164ZM4.48438 189.969C4.82812 189.969 5.14583 189.898 5.4375 189.758C5.72917 189.617 5.96875 189.424 6.15625 189.18C6.34375 188.93 6.45052 188.646 6.47656 188.328H7.85156C7.82552 188.828 7.65625 189.294 7.34375 189.727C7.03646 190.154 6.63281 190.5 6.13281 190.766C5.63281 191.026 5.08333 191.156 4.48438 191.156C3.84896 191.156 3.29427 191.044 2.82031 190.82C2.35156 190.596 1.96094 190.289 1.64844 189.898C1.34115 189.508 1.10938 189.06 0.953125 188.555C0.802083 188.044 0.726562 187.505 0.726562 186.938V186.609C0.726562 186.042 0.802083 185.505 0.953125 185C1.10938 184.49 1.34115 184.039 1.64844 183.648C1.96094 183.258 2.35156 182.951 2.82031 182.727C3.29427 182.503 3.84896 182.391 4.48438 182.391C5.14583 182.391 5.72396 182.526 6.21875 182.797C6.71354 183.062 7.10156 183.427 7.38281 183.891C7.66927 184.349 7.82552 184.87 7.85156 185.453H6.47656C6.45052 185.104 6.35156 184.789 6.17969 184.508C6.01302 184.227 5.78385 184.003 5.49219 183.836C5.20573 183.664 4.86979 183.578 4.48438 183.578C4.04167 183.578 3.66927 183.667 3.36719 183.844C3.07031 184.016 2.83333 184.25 2.65625 184.547C2.48438 184.839 2.35938 185.164 2.28125 185.523C2.20833 185.878 2.17188 186.24 2.17188 186.609V186.938C2.17188 187.307 2.20833 187.672 2.28125 188.031C2.35417 188.391 2.47656 188.716 2.64844 189.008C2.82552 189.299 3.0625 189.534 3.35938 189.711C3.66146 189.883 4.03646 189.969 4.48438 189.969ZM11.0469 182.547V191H9.60156V182.547H11.0469ZM16.5938 182.547L12.5859 187.391H10.5625L10.3438 186.125H12L14.8359 182.547H16.5938ZM15.0391 191L11.9297 187.172L12.8594 186.125L16.875 191H15.0391ZM23.7812 182.547V183.742H19.6953V182.547H23.7812ZM25.0547 182.547V191H23.6094V182.547H25.0547ZM19.3438 182.547H20.7969L20.5781 186.625C20.5417 187.255 20.4818 187.812 20.3984 188.297C20.3203 188.776 20.2109 189.188 20.0703 189.531C19.9349 189.875 19.763 190.156 19.5547 190.375C19.3516 190.589 19.1068 190.747 18.8203 190.852C18.5339 190.951 18.2031 191 17.8281 191H17.375V189.727L17.6875 189.703C17.9115 189.688 18.1016 189.635 18.2578 189.547C18.4193 189.458 18.5547 189.328 18.6641 189.156C18.7734 188.979 18.862 188.753 18.9297 188.477C19.0026 188.201 19.0573 187.872 19.0938 187.492C19.1354 187.112 19.1667 186.669 19.1875 186.164L19.3438 182.547ZM32.3672 189.555V185.203C32.3672 184.87 32.2995 184.581 32.1641 184.336C32.0339 184.086 31.8359 183.893 31.5703 183.758C31.3047 183.622 30.9766 183.555 30.5859 183.555C30.2214 183.555 29.901 183.617 29.625 183.742C29.3542 183.867 29.1406 184.031 28.9844 184.234C28.8333 184.438 28.7578 184.656 28.7578 184.891H27.3125C27.3125 184.589 27.3906 184.289 27.5469 183.992C27.7031 183.695 27.9271 183.427 28.2188 183.188C28.5156 182.943 28.8698 182.75 29.2812 182.609C29.6979 182.464 30.1615 182.391 30.6719 182.391C31.2865 182.391 31.8281 182.495 32.2969 182.703C32.7708 182.911 33.1406 183.227 33.4062 183.648C33.6771 184.065 33.8125 184.589 33.8125 185.219V189.156C33.8125 189.438 33.8359 189.737 33.8828 190.055C33.9349 190.372 34.0104 190.646 34.1094 190.875V191H32.6016C32.5286 190.833 32.4714 190.612 32.4297 190.336C32.388 190.055 32.3672 189.794 32.3672 189.555ZM32.6172 185.875L32.6328 186.891H31.1719C30.7604 186.891 30.3932 186.924 30.0703 186.992C29.7474 187.055 29.4766 187.151 29.2578 187.281C29.0391 187.411 28.8724 187.576 28.7578 187.773C28.6432 187.966 28.5859 188.193 28.5859 188.453C28.5859 188.719 28.6458 188.961 28.7656 189.18C28.8854 189.398 29.0651 189.573 29.3047 189.703C29.5495 189.828 29.849 189.891 30.2031 189.891C30.6458 189.891 31.0365 189.797 31.375 189.609C31.7135 189.422 31.9818 189.193 32.1797 188.922C32.3828 188.651 32.4922 188.388 32.5078 188.133L33.125 188.828C33.0885 189.047 32.9896 189.289 32.8281 189.555C32.6667 189.82 32.4505 190.076 32.1797 190.32C31.9141 190.56 31.5964 190.76 31.2266 190.922C30.862 191.078 30.4505 191.156 29.9922 191.156C29.4193 191.156 28.9167 191.044 28.4844 190.82C28.0573 190.596 27.724 190.297 27.4844 189.922C27.25 189.542 27.1328 189.117 27.1328 188.648C27.1328 188.195 27.2214 187.797 27.3984 187.453C27.5755 187.104 27.8307 186.815 28.1641 186.586C28.4974 186.352 28.8984 186.174 29.3672 186.055C29.8359 185.935 30.3594 185.875 30.9375 185.875H32.6172ZM37.6094 182.547H39.0547L38.9297 185.711C38.8984 186.513 38.8073 187.206 38.6562 187.789C38.5052 188.372 38.3125 188.87 38.0781 189.281C37.8438 189.688 37.5807 190.029 37.2891 190.305C37.0026 190.581 36.7057 190.812 36.3984 191H35.6797L35.7188 189.82L36.0156 189.812C36.1875 189.609 36.3542 189.401 36.5156 189.188C36.6771 188.969 36.8255 188.711 36.9609 188.414C37.0964 188.112 37.2083 187.745 37.2969 187.312C37.3906 186.875 37.4505 186.341 37.4766 185.711L37.6094 182.547ZM37.9688 182.547H43.0547V191H41.6094V183.883H37.9688V182.547ZM35.3516 189.812H44.1406V193.492H42.6953V191H36.7969V193.492H35.3438L35.3516 189.812ZM46.9297 185.453H49.4688C50.151 185.453 50.7266 185.573 51.1953 185.812C51.6641 186.047 52.0182 186.372 52.2578 186.789C52.5026 187.201 52.625 187.669 52.625 188.195C52.625 188.586 52.5573 188.953 52.4219 189.297C52.2865 189.635 52.0833 189.932 51.8125 190.188C51.5469 190.443 51.2161 190.643 50.8203 190.789C50.4297 190.93 49.9792 191 49.4688 191H45.875V182.547H47.3203V189.812H49.4688C49.8854 189.812 50.2188 189.737 50.4688 189.586C50.7188 189.435 50.8984 189.24 51.0078 189C51.1172 188.76 51.1719 188.51 51.1719 188.25C51.1719 187.995 51.1172 187.745 51.0078 187.5C50.8984 187.255 50.7188 187.052 50.4688 186.891C50.2188 186.724 49.8854 186.641 49.4688 186.641H46.9297V185.453ZM55.6328 182.547V191H54.1875V182.547H55.6328ZM62.1328 187.281H59.3594L59.3438 186.125H61.6094C62.0573 186.125 62.4297 186.081 62.7266 185.992C63.0286 185.904 63.2552 185.771 63.4062 185.594C63.5573 185.417 63.6328 185.198 63.6328 184.938C63.6328 184.734 63.5885 184.557 63.5 184.406C63.4167 184.25 63.2891 184.122 63.1172 184.023C62.9453 183.919 62.7318 183.844 62.4766 183.797C62.2266 183.745 61.9323 183.719 61.5938 183.719H59.7422V191H58.2969V182.547H61.5938C62.1302 182.547 62.612 182.594 63.0391 182.688C63.4714 182.781 63.8385 182.924 64.1406 183.117C64.4479 183.305 64.6823 183.544 64.8438 183.836C65.0052 184.128 65.0859 184.471 65.0859 184.867C65.0859 185.122 65.0339 185.365 64.9297 185.594C64.8255 185.823 64.6719 186.026 64.4688 186.203C64.2656 186.38 64.0156 186.526 63.7188 186.641C63.4219 186.75 63.0807 186.82 62.6953 186.852L62.1328 187.281ZM62.1328 191H58.8359L59.5547 189.828H62.1328C62.5339 189.828 62.8672 189.779 63.1328 189.68C63.3984 189.576 63.5964 189.43 63.7266 189.242C63.862 189.049 63.9297 188.82 63.9297 188.555C63.9297 188.289 63.862 188.062 63.7266 187.875C63.5964 187.682 63.3984 187.536 63.1328 187.438C62.8672 187.333 62.5339 187.281 62.1328 187.281H59.9375L59.9531 186.125H62.6953L63.2188 186.562C63.6823 186.599 64.0755 186.714 64.3984 186.906C64.7214 187.099 64.9661 187.344 65.1328 187.641C65.2995 187.932 65.3828 188.25 65.3828 188.594C65.3828 188.99 65.3073 189.339 65.1562 189.641C65.0104 189.943 64.7969 190.195 64.5156 190.398C64.2344 190.596 63.8932 190.747 63.4922 190.852C63.0911 190.951 62.638 191 62.1328 191ZM72.3047 189.555V185.203C72.3047 184.87 72.237 184.581 72.1016 184.336C71.9714 184.086 71.7734 183.893 71.5078 183.758C71.2422 183.622 70.9141 183.555 70.5234 183.555C70.1589 183.555 69.8385 183.617 69.5625 183.742C69.2917 183.867 69.0781 184.031 68.9219 184.234C68.7708 184.438 68.6953 184.656 68.6953 184.891H67.25C67.25 184.589 67.3281 184.289 67.4844 183.992C67.6406 183.695 67.8646 183.427 68.1562 183.188C68.4531 182.943 68.8073 182.75 69.2188 182.609C69.6354 182.464 70.099 182.391 70.6094 182.391C71.224 182.391 71.7656 182.495 72.2344 182.703C72.7083 182.911 73.0781 183.227 73.3438 183.648C73.6146 184.065 73.75 184.589 73.75 185.219V189.156C73.75 189.438 73.7734 189.737 73.8203 190.055C73.8724 190.372 73.9479 190.646 74.0469 190.875V191H72.5391C72.4661 190.833 72.4089 190.612 72.3672 190.336C72.3255 190.055 72.3047 189.794 72.3047 189.555ZM72.5547 185.875L72.5703 186.891H71.1094C70.6979 186.891 70.3307 186.924 70.0078 186.992C69.6849 187.055 69.4141 187.151 69.1953 187.281C68.9766 187.411 68.8099 187.576 68.6953 187.773C68.5807 187.966 68.5234 188.193 68.5234 188.453C68.5234 188.719 68.5833 188.961 68.7031 189.18C68.8229 189.398 69.0026 189.573 69.2422 189.703C69.487 189.828 69.7865 189.891 70.1406 189.891C70.5833 189.891 70.974 189.797 71.3125 189.609C71.651 189.422 71.9193 189.193 72.1172 188.922C72.3203 188.651 72.4297 188.388 72.4453 188.133L73.0625 188.828C73.026 189.047 72.9271 189.289 72.7656 189.555C72.6042 189.82 72.388 190.076 72.1172 190.32C71.8516 190.56 71.5339 190.76 71.1641 190.922C70.7995 191.078 70.388 191.156 69.9297 191.156C69.3568 191.156 68.8542 191.044 68.4219 190.82C67.9948 190.596 67.6615 190.297 67.4219 189.922C67.1875 189.542 67.0703 189.117 67.0703 188.648C67.0703 188.195 67.1589 187.797 67.3359 187.453C67.513 187.104 67.7682 186.815 68.1016 186.586C68.4349 186.352 68.8359 186.174 69.3047 186.055C69.7734 185.935 70.2969 185.875 70.875 185.875H72.5547ZM79.5312 191.156C78.9427 191.156 78.4089 191.057 77.9297 190.859C77.4557 190.656 77.0469 190.372 76.7031 190.008C76.3646 189.643 76.1042 189.211 75.9219 188.711C75.7396 188.211 75.6484 187.664 75.6484 187.07V186.742C75.6484 186.055 75.75 185.443 75.9531 184.906C76.1562 184.365 76.4323 183.906 76.7812 183.531C77.1302 183.156 77.526 182.872 77.9688 182.68C78.4115 182.487 78.8698 182.391 79.3438 182.391C79.9479 182.391 80.4688 182.495 80.9062 182.703C81.349 182.911 81.7109 183.203 81.9922 183.578C82.2734 183.948 82.4818 184.385 82.6172 184.891C82.7526 185.391 82.8203 185.938 82.8203 186.531V187.18H76.5078V186H81.375V185.891C81.3542 185.516 81.276 185.151 81.1406 184.797C81.0104 184.443 80.8021 184.151 80.5156 183.922C80.2292 183.693 79.8385 183.578 79.3438 183.578C79.0156 183.578 78.7135 183.648 78.4375 183.789C78.1615 183.924 77.9245 184.128 77.7266 184.398C77.5286 184.669 77.375 185 77.2656 185.391C77.1562 185.781 77.1016 186.232 77.1016 186.742V187.07C77.1016 187.471 77.1562 187.849 77.2656 188.203C77.3802 188.552 77.5443 188.859 77.7578 189.125C77.9766 189.391 78.2396 189.599 78.5469 189.75C78.8594 189.901 79.2135 189.977 79.6094 189.977C80.1198 189.977 80.5521 189.872 80.9062 189.664C81.2604 189.456 81.5703 189.177 81.8359 188.828L82.7109 189.523C82.5286 189.799 82.2969 190.062 82.0156 190.312C81.7344 190.562 81.388 190.766 80.9766 190.922C80.5703 191.078 80.0885 191.156 79.5312 191.156ZM87.8594 182.547V191H86.4062V182.547H87.8594ZM90.6953 182.547V183.719H83.625V182.547H90.6953ZM94.875 189.969C95.2188 189.969 95.5365 189.898 95.8281 189.758C96.1198 189.617 96.3594 189.424 96.5469 189.18C96.7344 188.93 96.8411 188.646 96.8672 188.328H98.2422C98.2161 188.828 98.0469 189.294 97.7344 189.727C97.4271 190.154 97.0234 190.5 96.5234 190.766C96.0234 191.026 95.474 191.156 94.875 191.156C94.2396 191.156 93.6849 191.044 93.2109 190.82C92.7422 190.596 92.3516 190.289 92.0391 189.898C91.7318 189.508 91.5 189.06 91.3438 188.555C91.1927 188.044 91.1172 187.505 91.1172 186.938V186.609C91.1172 186.042 91.1927 185.505 91.3438 185C91.5 184.49 91.7318 184.039 92.0391 183.648C92.3516 183.258 92.7422 182.951 93.2109 182.727C93.6849 182.503 94.2396 182.391 94.875 182.391C95.5365 182.391 96.1146 182.526 96.6094 182.797C97.1042 183.062 97.4922 183.427 97.7734 183.891C98.0599 184.349 98.2161 184.87 98.2422 185.453H96.8672C96.8411 185.104 96.7422 184.789 96.5703 184.508C96.4036 184.227 96.1745 184.003 95.8828 183.836C95.5964 183.664 95.2604 183.578 94.875 183.578C94.4323 183.578 94.0599 183.667 93.7578 183.844C93.4609 184.016 93.224 184.25 93.0469 184.547C92.875 184.839 92.75 185.164 92.6719 185.523C92.599 185.878 92.5625 186.24 92.5625 186.609V186.938C92.5625 187.307 92.599 187.672 92.6719 188.031C92.7448 188.391 92.8672 188.716 93.0391 189.008C93.2161 189.299 93.4531 189.534 93.75 189.711C94.0521 189.883 94.4271 189.969 94.875 189.969ZM101.578 186.969H103.141L100.695 191H99.1328L101.578 186.969ZM102.789 182.547H106.32V191H104.875V183.719H102.789C102.378 183.719 102.042 183.789 101.781 183.93C101.521 184.065 101.331 184.242 101.211 184.461C101.091 184.68 101.031 184.906 101.031 185.141C101.031 185.37 101.086 185.591 101.195 185.805C101.305 186.013 101.477 186.185 101.711 186.32C101.945 186.456 102.247 186.523 102.617 186.523H105.266V187.711H102.617C102.133 187.711 101.703 187.646 101.328 187.516C100.953 187.385 100.635 187.206 100.375 186.977C100.115 186.742 99.9167 186.469 99.7812 186.156C99.6458 185.839 99.5781 185.495 99.5781 185.125C99.5781 184.755 99.6484 184.414 99.7891 184.102C99.9349 183.789 100.143 183.516 100.414 183.281C100.69 183.047 101.026 182.867 101.422 182.742C101.823 182.612 102.279 182.547 102.789 182.547ZM112.742 191V182.547H114.188V189.812H118.078V182.547H119.531V191H112.742ZM120.531 189.812L120.391 193.508H119.102V191H118V189.812H120.531ZM125.609 191.156C125.021 191.156 124.487 191.057 124.008 190.859C123.534 190.656 123.125 190.372 122.781 190.008C122.443 189.643 122.182 189.211 122 188.711C121.818 188.211 121.727 187.664 121.727 187.07V186.742C121.727 186.055 121.828 185.443 122.031 184.906C122.234 184.365 122.51 183.906 122.859 183.531C123.208 183.156 123.604 182.872 124.047 182.68C124.49 182.487 124.948 182.391 125.422 182.391C126.026 182.391 126.547 182.495 126.984 182.703C127.427 182.911 127.789 183.203 128.07 183.578C128.352 183.948 128.56 184.385 128.695 184.891C128.831 185.391 128.898 185.938 128.898 186.531V187.18H122.586V186H127.453V185.891C127.432 185.516 127.354 185.151 127.219 184.797C127.089 184.443 126.88 184.151 126.594 183.922C126.307 183.693 125.917 183.578 125.422 183.578C125.094 183.578 124.792 183.648 124.516 183.789C124.24 183.924 124.003 184.128 123.805 184.398C123.607 184.669 123.453 185 123.344 185.391C123.234 185.781 123.18 186.232 123.18 186.742V187.07C123.18 187.471 123.234 187.849 123.344 188.203C123.458 188.552 123.622 188.859 123.836 189.125C124.055 189.391 124.318 189.599 124.625 189.75C124.938 189.901 125.292 189.977 125.688 189.977C126.198 189.977 126.63 189.872 126.984 189.664C127.339 189.456 127.648 189.177 127.914 188.828L128.789 189.523C128.607 189.799 128.375 190.062 128.094 190.312C127.812 190.562 127.466 190.766 127.055 190.922C126.648 191.078 126.167 191.156 125.609 191.156ZM136.32 186.211V187.383H131.852V186.211H136.32ZM132.156 182.547V191H130.711V182.547H132.156ZM137.492 182.547V191H136.039V182.547H137.492ZM144.805 189.555V185.203C144.805 184.87 144.737 184.581 144.602 184.336C144.471 184.086 144.273 183.893 144.008 183.758C143.742 183.622 143.414 183.555 143.023 183.555C142.659 183.555 142.339 183.617 142.062 183.742C141.792 183.867 141.578 184.031 141.422 184.234C141.271 184.438 141.195 184.656 141.195 184.891H139.75C139.75 184.589 139.828 184.289 139.984 183.992C140.141 183.695 140.365 183.427 140.656 183.188C140.953 182.943 141.307 182.75 141.719 182.609C142.135 182.464 142.599 182.391 143.109 182.391C143.724 182.391 144.266 182.495 144.734 182.703C145.208 182.911 145.578 183.227 145.844 183.648C146.115 184.065 146.25 184.589 146.25 185.219V189.156C146.25 189.438 146.273 189.737 146.32 190.055C146.372 190.372 146.448 190.646 146.547 190.875V191H145.039C144.966 190.833 144.909 190.612 144.867 190.336C144.826 190.055 144.805 189.794 144.805 189.555ZM145.055 185.875L145.07 186.891H143.609C143.198 186.891 142.831 186.924 142.508 186.992C142.185 187.055 141.914 187.151 141.695 187.281C141.477 187.411 141.31 187.576 141.195 187.773C141.081 187.966 141.023 188.193 141.023 188.453C141.023 188.719 141.083 188.961 141.203 189.18C141.323 189.398 141.503 189.573 141.742 189.703C141.987 189.828 142.286 189.891 142.641 189.891C143.083 189.891 143.474 189.797 143.812 189.609C144.151 189.422 144.419 189.193 144.617 188.922C144.82 188.651 144.93 188.388 144.945 188.133L145.562 188.828C145.526 189.047 145.427 189.289 145.266 189.555C145.104 189.82 144.888 190.076 144.617 190.32C144.352 190.56 144.034 190.76 143.664 190.922C143.299 191.078 142.888 191.156 142.43 191.156C141.857 191.156 141.354 191.044 140.922 190.82C140.495 190.596 140.161 190.297 139.922 189.922C139.688 189.542 139.57 189.117 139.57 188.648C139.57 188.195 139.659 187.797 139.836 187.453C140.013 187.104 140.268 186.815 140.602 186.586C140.935 186.352 141.336 186.174 141.805 186.055C142.273 185.935 142.797 185.875 143.375 185.875H145.055ZM148.547 190.234C148.547 189.99 148.622 189.784 148.773 189.617C148.93 189.445 149.154 189.359 149.445 189.359C149.737 189.359 149.958 189.445 150.109 189.617C150.266 189.784 150.344 189.99 150.344 190.234C150.344 190.474 150.266 190.677 150.109 190.844C149.958 191.01 149.737 191.094 149.445 191.094C149.154 191.094 148.93 191.01 148.773 190.844C148.622 190.677 148.547 190.474 148.547 190.234Z" fill="white"/>
<path d="M17.5781 91.2695L17.3555 98.1133H14.0742V94H12.6797V91.2695H17.5781ZM1.34766 94V76.9375H4.85156V91.2578H11.7188V76.9375H15.2461V94H1.34766ZM25.3594 94.2344C24.375 94.2344 23.4922 94.0781 22.7109 93.7656C21.9297 93.4453 21.2656 93.0039 20.7188 92.4414C20.1797 91.8789 19.7656 91.2266 19.4766 90.4844C19.1875 89.7344 19.043 88.9375 19.043 88.0938V87.625C19.043 86.6641 19.1797 85.7852 19.4531 84.9883C19.7266 84.1914 20.1172 83.5 20.625 82.9141C21.1406 82.3281 21.7656 81.8789 22.5 81.5664C23.2344 81.2461 24.0625 81.0859 24.9844 81.0859C25.8828 81.0859 26.6797 81.2344 27.375 81.5312C28.0703 81.8281 28.6523 82.25 29.1211 82.7969C29.5977 83.3438 29.957 84 30.1992 84.7656C30.4414 85.5234 30.5625 86.3672 30.5625 87.2969V88.7031H20.4844V86.4531H27.2461V86.1953C27.2461 85.7266 27.1602 85.3086 26.9883 84.9414C26.8242 84.5664 26.5742 84.2695 26.2383 84.0508C25.9023 83.832 25.4727 83.7227 24.9492 83.7227C24.5039 83.7227 24.1211 83.8203 23.8008 84.0156C23.4805 84.2109 23.2188 84.4844 23.0156 84.8359C22.8203 85.1875 22.6719 85.6016 22.5703 86.0781C22.4766 86.5469 22.4297 87.0625 22.4297 87.625V88.0938C22.4297 88.6016 22.5 89.0703 22.6406 89.5C22.7891 89.9297 22.9961 90.3008 23.2617 90.6133C23.5352 90.9258 23.8633 91.168 24.2461 91.3398C24.6367 91.5117 25.0781 91.5977 25.5703 91.5977C26.1797 91.5977 26.7461 91.4805 27.2695 91.2461C27.8008 91.0039 28.2578 90.6406 28.6406 90.1562L30.2812 91.9375C30.0156 92.3203 29.6523 92.6875 29.1914 93.0391C28.7383 93.3906 28.1914 93.6797 27.5508 93.9062C26.9102 94.125 26.1797 94.2344 25.3594 94.2344ZM41.168 86.4414V89.0664H34.7227V86.4414H41.168ZM35.8477 81.3203V94H32.4727V81.3203H35.8477ZM43.4531 81.3203V94H40.0664V81.3203H43.4531ZM54.7617 86.4414V89.0664H48.3164V86.4414H54.7617ZM49.4414 81.3203V94H46.0664V81.3203H49.4414ZM57.0469 81.3203V94H53.6602V81.3203H57.0469ZM63.0352 89.2891L67.2891 81.3203H70.6641V94H67.2891V86.0195L63.0352 94H59.6602V81.3203H63.0352V89.2891ZM76.8633 81.3203V94H73.4883V81.3203H76.8633ZM85.1016 81.3203L79.6406 89.2539H76.2656L75.8555 86.1367H78.0938L80.8242 81.3203H85.1016ZM80.9766 94L77.8594 88.6445L80.8008 87.0156L85.5 94H80.9766ZM101.273 81.3203V83.9688H95.1328V81.3203H101.273ZM96.1055 81.3203V94H92.7305V81.3203H96.1055ZM103.734 81.3203V94H100.348V81.3203H103.734ZM105.797 87.7891V87.543C105.797 86.6133 105.93 85.7578 106.195 84.9766C106.461 84.1875 106.848 83.5039 107.355 82.9258C107.863 82.3477 108.488 81.8984 109.23 81.5781C109.973 81.25 110.824 81.0859 111.785 81.0859C112.746 81.0859 113.602 81.25 114.352 81.5781C115.102 81.8984 115.73 82.3477 116.238 82.9258C116.754 83.5039 117.145 84.1875 117.41 84.9766C117.676 85.7578 117.809 86.6133 117.809 87.543V87.7891C117.809 88.7109 117.676 89.5664 117.41 90.3555C117.145 91.1367 116.754 91.8203 116.238 92.4062C115.73 92.9844 115.105 93.4336 114.363 93.7539C113.621 94.0742 112.77 94.2344 111.809 94.2344C110.848 94.2344 109.992 94.0742 109.242 93.7539C108.5 93.4336 107.871 92.9844 107.355 92.4062C106.848 91.8203 106.461 91.1367 106.195 90.3555C105.93 89.5664 105.797 88.7109 105.797 87.7891ZM109.172 87.543V87.7891C109.172 88.3203 109.219 88.8164 109.312 89.2773C109.406 89.7383 109.555 90.1445 109.758 90.4961C109.969 90.8398 110.242 91.1094 110.578 91.3047C110.914 91.5 111.324 91.5977 111.809 91.5977C112.277 91.5977 112.68 91.5 113.016 91.3047C113.352 91.1094 113.621 90.8398 113.824 90.4961C114.027 90.1445 114.176 89.7383 114.27 89.2773C114.371 88.8164 114.422 88.3203 114.422 87.7891V87.543C114.422 87.0273 114.371 86.543 114.27 86.0898C114.176 85.6289 114.023 85.2227 113.812 84.8711C113.609 84.5117 113.34 84.2305 113.004 84.0273C112.668 83.8242 112.262 83.7227 111.785 83.7227C111.309 83.7227 110.902 83.8242 110.566 84.0273C110.238 84.2305 109.969 84.5117 109.758 84.8711C109.555 85.2227 109.406 85.6289 109.312 86.0898C109.219 86.543 109.172 87.0273 109.172 87.543ZM121.324 81.3203H124.699L124.594 85.5625C124.562 86.9219 124.406 88.0898 124.125 89.0664C123.844 90.043 123.469 90.8633 123 91.5273C122.531 92.1914 121.996 92.7227 121.395 93.1211C120.801 93.5117 120.176 93.8047 119.52 94H118.887L118.852 91.3984L119.203 91.3633C119.602 90.9492 119.93 90.5469 120.188 90.1562C120.445 89.7578 120.645 89.3398 120.785 88.9023C120.926 88.4648 121.027 87.9766 121.09 87.4375C121.16 86.8984 121.203 86.2734 121.219 85.5625L121.324 81.3203ZM122.238 81.3203H130.641V94H127.277V84.0273H122.238V81.3203ZM118.113 91.3633H132.457V97.8086H129.082V94H121.57V97.8086H118.113V91.3633ZM146.473 88.7031H142.5L142.477 86.4883H145.758C146.195 86.4883 146.551 86.4453 146.824 86.3594C147.098 86.2656 147.297 86.1289 147.422 85.9492C147.555 85.7617 147.621 85.5352 147.621 85.2695C147.621 85.0352 147.578 84.8359 147.492 84.6719C147.414 84.5 147.293 84.3594 147.129 84.25C146.965 84.1406 146.758 84.0625 146.508 84.0156C146.266 83.9609 145.98 83.9336 145.652 83.9336H143.754V94H140.379V81.3203H145.652C146.48 81.3203 147.223 81.3945 147.879 81.543C148.535 81.6836 149.094 81.8984 149.555 82.1875C150.023 82.4766 150.379 82.8438 150.621 83.2891C150.871 83.7266 150.996 84.2461 150.996 84.8477C150.996 85.2383 150.906 85.6055 150.727 85.9492C150.555 86.293 150.297 86.5977 149.953 86.8633C149.609 87.1289 149.184 87.3477 148.676 87.5195C148.176 87.6836 147.598 87.7852 146.941 87.8242L146.473 88.7031ZM146.473 94H141.668L142.828 91.3867H146.473C146.887 91.3867 147.227 91.3359 147.492 91.2344C147.758 91.1328 147.953 90.9844 148.078 90.7891C148.211 90.5859 148.277 90.3438 148.277 90.0625C148.277 89.7891 148.219 89.5508 148.102 89.3477C147.984 89.1445 147.793 88.9883 147.527 88.8789C147.27 88.7617 146.918 88.7031 146.473 88.7031H143.32L143.344 86.4883H146.93L147.75 87.3789C148.641 87.4336 149.375 87.6016 149.953 87.8828C150.531 88.1641 150.957 88.5234 151.23 88.9609C151.512 89.3906 151.652 89.8633 151.652 90.3789C151.652 90.9805 151.539 91.5078 151.312 91.9609C151.086 92.4141 150.75 92.793 150.305 93.0977C149.867 93.3945 149.328 93.6211 148.688 93.7773C148.047 93.9258 147.309 94 146.473 94ZM160.57 91.1406V85.4922C160.57 85.0859 160.504 84.7383 160.371 84.4492C160.238 84.1523 160.031 83.9219 159.75 83.7578C159.477 83.5938 159.121 83.5117 158.684 83.5117C158.309 83.5117 157.984 83.5781 157.711 83.7109C157.438 83.8359 157.227 84.0195 157.078 84.2617C156.93 84.4961 156.855 84.7734 156.855 85.0938H153.48C153.48 84.5547 153.605 84.043 153.855 83.5586C154.105 83.0742 154.469 82.6484 154.945 82.2812C155.422 81.9062 155.988 81.6133 156.645 81.4023C157.309 81.1914 158.051 81.0859 158.871 81.0859C159.855 81.0859 160.73 81.25 161.496 81.5781C162.262 81.9062 162.863 82.3984 163.301 83.0547C163.746 83.7109 163.969 84.5312 163.969 85.5156V90.9414C163.969 91.6367 164.012 92.207 164.098 92.6523C164.184 93.0898 164.309 93.4727 164.473 93.8008V94H161.062C160.898 93.6562 160.773 93.2266 160.688 92.7109C160.609 92.1875 160.57 91.6641 160.57 91.1406ZM161.016 86.2773L161.039 88.1875H159.152C158.707 88.1875 158.32 88.2383 157.992 88.3398C157.664 88.4414 157.395 88.5859 157.184 88.7734C156.973 88.9531 156.816 89.1641 156.715 89.4062C156.621 89.6484 156.574 89.9141 156.574 90.2031C156.574 90.4922 156.641 90.7539 156.773 90.9883C156.906 91.2148 157.098 91.3945 157.348 91.5273C157.598 91.6523 157.891 91.7148 158.227 91.7148C158.734 91.7148 159.176 91.6133 159.551 91.4102C159.926 91.207 160.215 90.957 160.418 90.6602C160.629 90.3633 160.738 90.082 160.746 89.8164L161.637 91.2461C161.512 91.5664 161.34 91.8984 161.121 92.2422C160.91 92.5859 160.641 92.9102 160.312 93.2148C159.984 93.5117 159.59 93.7578 159.129 93.9531C158.668 94.1406 158.121 94.2344 157.488 94.2344C156.684 94.2344 155.953 94.0742 155.297 93.7539C154.648 93.4258 154.133 92.9766 153.75 92.4062C153.375 91.8281 153.188 91.1719 153.188 90.4375C153.188 89.7734 153.312 89.1836 153.562 88.668C153.812 88.1523 154.18 87.7188 154.664 87.3672C155.156 87.0078 155.77 86.7383 156.504 86.5586C157.238 86.3711 158.09 86.2773 159.059 86.2773H161.016ZM171.809 91.5977C172.223 91.5977 172.59 91.5195 172.91 91.3633C173.23 91.1992 173.48 90.9727 173.66 90.6836C173.848 90.3867 173.945 90.0391 173.953 89.6406H177.129C177.121 90.5312 176.883 91.3242 176.414 92.0195C175.945 92.707 175.316 93.25 174.527 93.6484C173.738 94.0391 172.855 94.2344 171.879 94.2344C170.895 94.2344 170.035 94.0703 169.301 93.7422C168.574 93.4141 167.969 92.9609 167.484 92.3828C167 91.7969 166.637 91.1172 166.395 90.3438C166.152 89.5625 166.031 88.7266 166.031 87.8359V87.4961C166.031 86.5977 166.152 85.7617 166.395 84.9883C166.637 84.207 167 83.5273 167.484 82.9492C167.969 82.3633 168.574 81.9062 169.301 81.5781C170.027 81.25 170.879 81.0859 171.855 81.0859C172.895 81.0859 173.805 81.2852 174.586 81.6836C175.375 82.082 175.992 82.6523 176.438 83.3945C176.891 84.1289 177.121 85 177.129 86.0078H173.953C173.945 85.5859 173.855 85.2031 173.684 84.8594C173.52 84.5156 173.277 84.2422 172.957 84.0391C172.645 83.8281 172.258 83.7227 171.797 83.7227C171.305 83.7227 170.902 83.8281 170.59 84.0391C170.277 84.2422 170.035 84.5234 169.863 84.8828C169.691 85.2344 169.57 85.6367 169.5 86.0898C169.438 86.5352 169.406 87.0039 169.406 87.4961V87.8359C169.406 88.3281 169.438 88.8008 169.5 89.2539C169.562 89.707 169.68 90.1094 169.852 90.4609C170.031 90.8125 170.277 91.0898 170.59 91.293C170.902 91.4961 171.309 91.5977 171.809 91.5977Z" fill="white"/>
<path d="M55.8899 21.8011L47.3073 30.3725L42.4092 25.4719L46.1111 21.8011C46.4057 21.4574 46.3858 20.9454 46.0653 20.6254C45.7453 20.3058 45.2327 20.2859 44.8885 20.5802L41.1782 24.2425L38.7332 21.7922L47.3073 13.2208C47.6434 12.8831 47.6434 12.3377 47.3073 11.9999C46.9691 11.6642 46.423 11.6642 46.0848 11.9999L36.8868 21.1864C36.7225 21.3488 36.6302 21.5703 36.6302 21.8011C36.6302 22.0319 36.7225 22.253 36.8868 22.4158L38.1177 23.6363L36.8868 24.8661C35.4314 23.4114 33.1523 23.1797 31.4337 24.3119L30.7577 23.6363C29.9453 22.8271 28.8447 22.3727 27.6972 22.3722C27.1549 22.3722 26.6169 22.472 26.1106 22.6669L24.6282 21.1864L25.2437 20.5802C25.4079 20.4174 25.5002 20.1963 25.5002 19.9655C25.5002 19.7347 25.4079 19.5131 25.2437 19.3508L16.6353 10.7794C16.2954 10.4421 15.7459 10.4442 15.4085 10.7836C15.0707 11.1231 15.0728 11.6714 15.4128 12.0088L23.3798 19.9655L22.7644 20.5713L18.4297 24.8572L15.3696 21.7922C15.2066 21.6282 14.9852 21.536 14.7541 21.536C14.523 21.536 14.3012 21.6282 14.1386 21.7922C13.8021 22.13 13.8021 22.6754 14.1386 23.0131L17.2072 26.0781L15.9762 27.2986L14.8231 28.5715L6.85601 20.5802C6.69346 20.4162 6.47165 20.324 6.24053 20.324C6.0094 20.324 5.78801 20.4162 5.62504 20.5802C5.28893 20.918 5.28893 21.4633 5.62504 21.8011L14.2076 30.3725C14.3714 30.5344 14.5928 30.6249 14.8231 30.6236C15.0538 30.6249 15.2752 30.5344 15.439 30.3725L16.6353 29.1516L17.8574 30.3725C16.1654 32.0631 16.1654 34.803 17.8574 36.4936L19.4875 38.0954C19.6501 38.2594 19.8719 38.3516 20.103 38.3516C20.3341 38.3516 20.5555 38.2594 20.7185 38.0954C21.0546 37.7576 21.0546 37.2123 20.7185 36.8745L19.1146 35.2731C18.6248 34.7856 18.3497 34.1236 18.3497 33.4333C18.3497 32.7425 18.6248 32.0804 19.1146 31.5934L19.7216 30.9872L25.8592 24.8572C26.8895 23.8811 28.5048 23.8811 29.5352 24.8572L35.0487 30.3636C35.3434 30.7073 35.3235 31.2193 35.0035 31.5393C34.683 31.8589 34.1704 31.8788 33.8267 31.5845L29.8298 27.5933C29.4878 27.2538 28.9345 27.2555 28.5946 27.5975C28.2547 27.9395 28.2564 28.4916 28.5988 28.8311L32.5953 32.8228C33.3386 33.5706 34.4604 33.7964 35.4352 33.3939C36.4105 32.9915 37.0455 32.0407 37.043 30.9872C37.0421 30.2985 36.7678 29.6382 36.2797 29.1516L32.7083 25.5844C33.7039 25.1337 34.8739 25.3324 35.6642 26.0866L43.0247 33.4375C43.5094 33.9253 43.7807 34.5857 43.7791 35.2731C43.7807 35.9605 43.5094 36.6204 43.0247 37.1083L40.5712 39.5586L38.0572 42.0609L36.2797 43.8445L31.3732 48.7447C31.0349 49.0803 30.4889 49.0803 30.1507 48.7447C29.8145 48.4073 29.8145 47.8619 30.1507 47.5242L35.7078 42C35.9551 41.7886 36.063 41.4563 35.9868 41.1401C35.9106 40.8239 35.6634 40.577 35.3468 40.5009C35.0297 40.4248 34.6974 40.5322 34.4853 40.7795L28.9629 46.2859C28.6191 46.5801 28.1065 46.5603 27.7861 46.2407C27.466 45.9206 27.4461 45.4087 27.7408 45.065L33.2543 39.5586C33.4186 39.3962 33.5109 39.1747 33.5109 38.9439C33.5109 38.7131 33.4186 38.492 33.2543 38.3292C32.9161 37.9935 32.3701 37.9935 32.0318 38.3292L26.5094 43.8445C26.1716 44.1801 25.6255 44.1801 25.2873 43.8445C25.123 43.6817 25.0307 43.4606 25.0307 43.2298C25.0307 42.999 25.123 42.7774 25.2873 42.6151L30.8009 37.1083C30.9651 36.9459 31.0574 36.7244 31.0574 36.4936C31.0574 36.2628 30.9651 36.0417 30.8009 35.8789C30.4626 35.5432 29.9166 35.5432 29.5783 35.8789L24.0563 41.3942C23.7164 41.7311 23.1669 41.7294 22.8295 41.39C22.4917 41.0505 22.4939 40.5017 22.8338 40.1648L29.5005 33.5153C29.8404 33.1758 29.8404 32.6254 29.5005 32.2859C29.1605 31.9464 28.6094 31.9464 28.2695 32.2859L21.5681 38.9612C20.5538 39.9754 20.5538 41.6182 21.5681 42.6324C22.0159 43.089 22.6192 43.3613 23.2584 43.3942C23.3358 44.7124 24.3915 45.7629 25.7118 45.8357C25.7851 47.1576 26.8421 48.2128 28.1653 48.286C28.1903 48.937 28.4595 49.5555 28.9197 50.0176C29.7011 50.7963 30.8897 50.9979 31.8845 50.5198L32.5953 51.2385C33.3255 51.9682 34.4193 52.1973 35.3819 51.8219C36.3441 51.4465 36.9926 50.538 37.0341 49.5069C37.6872 49.487 38.3082 49.2173 38.7679 48.7535C39.2183 48.302 39.4867 47.7013 39.5223 47.065C40.846 46.9923 41.9025 45.9367 41.9758 44.6147C43.0082 44.5737 43.9179 43.9256 44.2938 42.9647C44.6701 42.0034 44.4407 40.9114 43.7096 40.1821L43.0941 39.5759L44.3251 38.3465C45.1353 37.5353 45.5904 36.4361 45.5908 35.29C45.5705 34.4331 45.2958 33.6015 44.8018 32.9006L46.1111 31.5934L46.7265 32.2081C47.0648 32.5438 47.6108 32.5438 47.9491 32.2081L57.1209 23.0216C57.457 22.6842 57.457 22.1385 57.1209 21.8011C56.9583 21.6371 56.7365 21.5449 56.5054 21.5449C56.2743 21.5449 56.0529 21.6371 55.8899 21.8011ZM17.8836 27.9222L23.4061 22.4158L24.6282 23.6363L19.1146 29.1516L17.8836 27.9222ZM35.0487 49.9656C34.7105 50.3012 34.1645 50.3012 33.8267 49.9656L33.2112 49.3509L34.4422 48.13L35.0487 48.7362C35.213 48.8985 35.3053 49.1201 35.3053 49.3509C35.3053 49.5817 35.213 49.8032 35.0487 49.9656ZM37.5022 47.5153C37.164 47.8509 36.618 47.8509 36.2797 47.5153L35.7078 46.9006L36.3233 46.2859L36.9299 45.6797L37.5458 46.2859C37.7097 46.4487 37.8019 46.6698 37.8019 46.9006C37.8019 47.1314 37.7097 47.3529 37.5458 47.5153H37.5022ZM39.9557 45.065C39.6175 45.4006 39.0714 45.4006 38.7332 45.065L38.1177 44.4503L39.3402 43.2298L39.9557 43.8445C40.2918 44.1823 40.2918 44.7276 39.9557 45.065ZM42.4092 42.6151C42.2463 42.7787 42.0249 42.8709 41.7937 42.8709C41.5626 42.8709 41.3408 42.7787 41.1782 42.6151L40.5712 42L41.7764 40.7795L42.3919 41.3942C42.7326 41.7269 42.7407 42.2727 42.4092 42.6151ZM43.6313 31.5934L38.1177 26.0866L39.3402 24.8661L44.8627 30.3725L43.6313 31.5934Z" fill="#FFBB01"/>
<path d="M21.8334 13.8529H40.9014C41.3801 13.8529 41.7682 13.4652 41.7682 12.9871V0.865806C41.7682 0.387668 41.3801 0 40.9014 0H21.8334C21.3547 0 20.9667 0.387668 20.9667 0.865806V12.9871C20.9667 13.4652 21.3547 13.8529 21.8334 13.8529ZM22.7001 10.3897C23.6574 10.3897 24.4336 11.165 24.4336 12.1213H22.7001V10.3897ZM40.0347 12.1213H38.3012C38.3012 11.165 39.0774 10.3897 40.0347 10.3897V12.1213ZM40.0347 3.46322C39.0774 3.46322 38.3012 2.68789 38.3012 1.73161H40.0347V3.46322ZM40.0347 5.19483V8.65806C38.1197 8.65806 36.5678 10.2087 36.5678 12.1213H26.167C26.167 10.2087 24.6147 8.65806 22.7001 8.65806V5.19483C24.6147 5.19483 26.167 3.64416 26.167 1.73161H36.5678C36.5678 3.64416 38.1197 5.19483 40.0347 5.19483ZM22.7001 1.73161H24.4336C24.4336 2.68789 23.6574 3.46322 22.7001 3.46322V1.73161Z" fill="#FFBB01"/>
<path d="M31.3667 10.3896C33.281 10.3896 34.8332 8.83897 34.8332 6.92642C34.8332 5.01387 33.281 3.4632 31.3667 3.4632C29.4519 3.4632 27.9002 5.01387 27.9002 6.92642C27.9002 8.83897 29.4519 10.3896 31.3667 10.3896ZM31.3667 5.19481C32.3239 5.19481 33.0999 5.97014 33.0999 6.92642C33.0999 7.88269 32.3239 8.65803 31.3667 8.65803C30.4095 8.65803 29.6335 7.88269 29.6335 6.92642C29.6335 5.97014 30.4095 5.19481 31.3667 5.19481Z" fill="#FFBB01"/>
<path d="M38.3008 6.92641C38.3008 7.40455 37.9128 7.79222 37.4342 7.79222C36.9556 7.79222 36.5675 7.40455 36.5675 6.92641C36.5675 6.44828 36.9556 6.06061 37.4342 6.06061C37.9128 6.06061 38.3008 6.44828 38.3008 6.92641Z" fill="#FFBB01"/>
<path d="M26.1666 6.92641C26.1666 7.40455 25.7786 7.79222 25.3 7.79222C24.8214 7.79222 24.4334 7.40455 24.4334 6.92641C24.4334 6.44828 24.8214 6.06061 25.3 6.06061C25.7786 6.06061 26.1666 6.44828 26.1666 6.92641Z" fill="#FFBB01"/>
<path d="M57.2219 5.5845L53.755 0.38967C53.5937 0.149967 53.3241 0.00665283 53.0355 0.00665283C52.7469 0.00665283 52.4769 0.149967 52.3161 0.38967L48.8491 5.5845C48.7543 5.72528 48.7031 5.891 48.7019 6.06053V9.52375C48.7019 10.0019 49.0899 10.3896 49.5686 10.3896C50.0472 10.3896 50.4353 10.0019 50.4353 9.52375V6.3201L53.0355 2.42398L55.6357 6.3201V15.5844C55.6357 16.0625 56.0238 16.4502 56.5024 16.4502C56.9811 16.4502 57.3692 16.0625 57.3692 15.5844V6.06053C57.3679 5.891 57.3167 5.72528 57.2219 5.5845Z" fill="#FFBB01"/>
<path d="M53.9021 12.1212V6.92641C53.9021 6.44828 53.5141 6.06061 53.0355 6.06061C52.5569 6.06061 52.1689 6.44828 52.1689 6.92641V12.1212C52.1689 12.5994 52.5569 12.9871 53.0355 12.9871C53.5141 12.9871 53.9021 12.5994 53.9021 12.1212Z" fill="#FFBB01"/>
<path d="M6.23195 7.79219H7.09868V18.1819C7.09868 18.66 7.48676 19.0477 7.96541 19.0477C8.44405 19.0477 8.83213 18.66 8.83213 18.1819V6.92638C8.83213 6.44824 8.44405 6.06058 7.96541 6.06058H7.91335L10.5656 2.35511L13.2178 6.06058H13.1658C12.6871 6.06058 12.2991 6.44824 12.2991 6.92638V8.65799C12.2991 9.13613 12.6871 9.5238 13.1658 9.5238C13.6444 9.5238 14.0325 9.13613 14.0325 8.65799V7.79219H14.8992C15.223 7.79049 15.5188 7.60913 15.6665 7.32124C15.8142 7.03376 15.7888 6.68752 15.6013 6.42415L11.2677 0.363507C11.1043 0.1386 10.8436 0.00543213 10.5656 0.00543213C10.2875 0.00543213 10.0264 0.1386 9.86349 0.363507L5.52985 6.42415C5.34194 6.68752 5.31697 7.03376 5.46467 7.32124C5.61237 7.60913 5.90819 7.79049 6.23195 7.79219Z" fill="#FFBB01"/>
<path d="M10.5649 12.1213V14.7187C10.5649 15.1968 10.9529 15.5845 11.4315 15.5845C11.9101 15.5845 12.2982 15.1968 12.2982 14.7187V12.1213C12.2982 11.6432 11.9101 11.2555 11.4315 11.2555C10.9529 11.2555 10.5649 11.6432 10.5649 12.1213Z" fill="#FFBB01"/>
</svg>
