<svg width="53" height="42" viewBox="0 0 53 42" fill="none" xmlns="http://www.w3.org/2000/svg">
<path d="M50.8899 11.8011L42.3073 20.3725L37.4092 15.4719L41.1111 11.8011C41.4057 11.4574 41.3858 10.9454 41.0653 10.6254C40.7453 10.3058 40.2327 10.2859 39.8885 10.5802L36.1782 14.2425L33.7332 11.7922L42.3073 3.22083C42.6434 2.88305 42.6434 2.3377 42.3073 1.99991C41.9691 1.66424 41.423 1.66424 41.0848 1.99991L31.8868 11.1864C31.7225 11.3488 31.6302 11.5703 31.6302 11.8011C31.6302 12.0319 31.7225 12.253 31.8868 12.4158L33.1177 13.6363L31.8868 14.8661C30.4314 13.4114 28.1523 13.1797 26.4337 14.3119L25.7577 13.6363C24.9453 12.8271 23.8447 12.3727 22.6972 12.3722C22.1549 12.3722 21.6169 12.472 21.1106 12.6669L19.6282 11.1864L20.2437 10.5802C20.4079 10.4174 20.5002 10.1963 20.5002 9.96549C20.5002 9.73467 20.4079 9.51314 20.2437 9.35081L11.6353 0.779414C11.2954 0.442055 10.7459 0.444168 10.4085 0.783642C10.0707 1.12312 10.0728 1.67143 10.4128 2.00879L18.3798 9.96549L17.7644 10.5713L13.4297 14.8572L10.3696 11.7922C10.2066 11.6282 9.98522 11.536 9.7541 11.536C9.52297 11.536 9.30116 11.6282 9.13861 11.7922C8.80208 12.13 8.80208 12.6754 9.13861 13.0131L12.2072 16.0781L10.9762 17.2986L9.82309 18.5715L1.85601 10.5802C1.69346 10.4162 1.47165 10.324 1.24053 10.324C1.0094 10.324 0.788009 10.4162 0.625035 10.5802C0.288929 10.918 0.288929 11.4633 0.625035 11.8011L9.2076 20.3725C9.37142 20.5344 9.59282 20.6249 9.82309 20.6236C10.0538 20.6249 10.2752 20.5344 10.439 20.3725L11.6353 19.1516L12.8574 20.3725C11.1654 22.0631 11.1654 24.803 12.8574 26.4936L14.4875 28.0954C14.6501 28.2594 14.8719 28.3516 15.103 28.3516C15.3341 28.3516 15.5555 28.2594 15.7185 28.0954C16.0546 27.7576 16.0546 27.2123 15.7185 26.8745L14.1146 25.2731C13.6248 24.7856 13.3497 24.1236 13.3497 23.4333C13.3497 22.7425 13.6248 22.0804 14.1146 21.5934L14.7216 20.9872L20.8592 14.8572C21.8895 13.8811 23.5048 13.8811 24.5352 14.8572L30.0487 20.3636C30.3434 20.7073 30.3235 21.2193 30.0035 21.5393C29.683 21.8589 29.1704 21.8788 28.8267 21.5845L24.8298 17.5933C24.4878 17.2538 23.9345 17.2555 23.5946 17.5975C23.2547 17.9395 23.2564 18.4916 23.5988 18.8311L27.5953 22.8228C28.3386 23.5706 29.4604 23.7964 30.4352 23.3939C31.4105 22.9915 32.0455 22.0407 32.043 20.9872C32.0421 20.2985 31.7678 19.6382 31.2797 19.1516L27.7083 15.5844C28.7039 15.1337 29.8739 15.3324 30.6642 16.0866L38.0247 23.4375C38.5094 23.9253 38.7807 24.5857 38.7791 25.2731C38.7807 25.9605 38.5094 26.6204 38.0247 27.1083L35.5712 29.5586L33.0572 32.0609L31.2797 33.8445L26.3732 38.7447C26.0349 39.0803 25.4889 39.0803 25.1507 38.7447C24.8145 38.4073 24.8145 37.8619 25.1507 37.5242L30.7078 32C30.9551 31.7886 31.063 31.4563 30.9868 31.1401C30.9106 30.8239 30.6634 30.577 30.3468 30.5009C30.0297 30.4248 29.6974 30.5322 29.4853 30.7795L23.9629 36.2859C23.6191 36.5801 23.1065 36.5603 22.7861 36.2407C22.466 35.9206 22.4461 35.4087 22.7408 35.065L28.2543 29.5586C28.4186 29.3962 28.5109 29.1747 28.5109 28.9439C28.5109 28.7131 28.4186 28.492 28.2543 28.3292C27.9161 27.9935 27.3701 27.9935 27.0318 28.3292L21.5094 33.8445C21.1716 34.1801 20.6255 34.1801 20.2873 33.8445C20.123 33.6817 20.0307 33.4606 20.0307 33.2298C20.0307 32.999 20.123 32.7774 20.2873 32.6151L25.8009 27.1083C25.9651 26.9459 26.0574 26.7244 26.0574 26.4936C26.0574 26.2628 25.9651 26.0417 25.8009 25.8789C25.4626 25.5432 24.9166 25.5432 24.5783 25.8789L19.0563 31.3942C18.7164 31.7311 18.1669 31.7294 17.8295 31.39C17.4917 31.0505 17.4939 30.5017 17.8338 30.1648L24.5005 23.5153C24.8404 23.1758 24.8404 22.6254 24.5005 22.2859C24.1605 21.9464 23.6094 21.9464 23.2695 22.2859L16.5681 28.9612C15.5538 29.9754 15.5538 31.6182 16.5681 32.6324C17.0159 33.089 17.6192 33.3613 18.2584 33.3942C18.3358 34.7124 19.3915 35.7629 20.7118 35.8357C20.7851 37.1576 21.8421 38.2128 23.1653 38.286C23.1903 38.937 23.4595 39.5555 23.9197 40.0176C24.7011 40.7963 25.8897 40.9979 26.8845 40.5198L27.5953 41.2385C28.3255 41.9682 29.4193 42.1973 30.3819 41.8219C31.3441 41.4465 31.9926 40.538 32.0341 39.5069C32.6872 39.487 33.3082 39.2173 33.7679 38.7535C34.2183 38.302 34.4867 37.7013 34.5223 37.065C35.846 36.9923 36.9025 35.9367 36.9758 34.6147C38.0082 34.5737 38.9179 33.9256 39.2938 32.9647C39.6701 32.0034 39.4407 30.9114 38.7096 30.1821L38.0941 29.5759L39.3251 28.3465C40.1353 27.5353 40.5904 26.4361 40.5908 25.29C40.5705 24.4331 40.2958 23.6015 39.8018 22.9006L41.1111 21.5934L41.7265 22.2081C42.0648 22.5438 42.6108 22.5438 42.9491 22.2081L52.1209 13.0216C52.457 12.6842 52.457 12.1385 52.1209 11.8011C51.9583 11.6371 51.7365 11.5449 51.5054 11.5449C51.2743 11.5449 51.0529 11.6371 50.8899 11.8011ZM12.8836 17.9222L18.4061 12.4158L19.6282 13.6363L14.1146 19.1516L12.8836 17.9222ZM30.0487 39.9656C29.7105 40.3012 29.1645 40.3012 28.8267 39.9656L28.2112 39.3509L29.4422 38.13L30.0487 38.7362C30.213 38.8985 30.3053 39.1201 30.3053 39.3509C30.3053 39.5817 30.213 39.8032 30.0487 39.9656ZM32.5022 37.5153C32.164 37.8509 31.618 37.8509 31.2797 37.5153L30.7078 36.9006L31.3233 36.2859L31.9299 35.6797L32.5458 36.2859C32.7097 36.4487 32.8019 36.6698 32.8019 36.9006C32.8019 37.1314 32.7097 37.3529 32.5458 37.5153H32.5022ZM34.9557 35.065C34.6175 35.4006 34.0714 35.4006 33.7332 35.065L33.1177 34.4503L34.3402 33.2298L34.9557 33.8445C35.2918 34.1823 35.2918 34.7276 34.9557 35.065ZM37.4092 32.6151C37.2463 32.7787 37.0249 32.8709 36.7937 32.8709C36.5626 32.8709 36.3408 32.7787 36.1782 32.6151L35.5712 32L36.7764 30.7795L37.3919 31.3942C37.7326 31.7269 37.7407 32.2727 37.4092 32.6151ZM38.6313 21.5934L33.1177 16.0866L34.3402 14.8661L39.8627 20.3725L38.6313 21.5934Z" fill="#FFBB01"/>
</svg>
